<?xml version="1.0" encoding="UTF-8" standalone="no"?>
<svg
   width="71.4588mm"
   height="72.4748mm"
   viewBox="0 0 844 856"
   version="1.1"
   id="svg3"
   sodipodi:docname="aperture-good.svg"
   inkscape:version="1.1.1 (3bf5ae0d25, 2021-09-20)"
   xmlns:inkscape="http://www.inkscape.org/namespaces/inkscape"
   xmlns:sodipodi="http://sodipodi.sourceforge.net/DTD/sodipodi-0.dtd"
   xmlns="http://www.w3.org/2000/svg"
   xmlns:svg="http://www.w3.org/2000/svg">
  <defs
     id="defs7" />
  <sodipodi:namedview
     id="namedview5"
     pagecolor="#ffffff"
     bordercolor="#666666"
     borderopacity="1.0"
     inkscape:pageshadow="2"
     inkscape:pageopacity="0.0"
     inkscape:pagecheckerboard="0"
     inkscape:document-units="mm"
     showgrid="false"
     inkscape:zoom="3.0738845"
     inkscape:cx="135.00832"
     inkscape:cy="137.12291"
     inkscape:window-width="1920"
     inkscape:window-height="1020"
     inkscape:window-x="0"
     inkscape:window-y="0"
     inkscape:window-maximized="1"
     inkscape:current-layer="svg3" />
  <path
     style="color:#000000;fill:#000000;-inkscape-stroke:none"
     d="m 422.00391,26.5 -16.03711,0.511719 -44.03516,4.453125 -0.0176,0.002 c -23.81679,4.182949 -44.13936,9.010151 -67.07422,16.728515 l -0.006,0.0039 -22.25781,8.171875 -0.002,0.002 c -3.74773,1.415582 -8.01296,3.901412 -11.60547,4.128906 L 260.5,60.53125 V 61 62.630859 l -12.71289,3.91211 -16.81836,10.882812 -2.07422,-1.037109 -0.25586,0.265625 c -2.59326,2.705591 -4.96338,3.743397 -7.05469,4.855469 -1.99052,1.05848 -3.70641,2.331227 -4.84179,4.990234 h -5.02539 l -3.04883,5.078125 c -5.22392,0.650403 -11.78505,5.367291 -18.04883,10.183595 -3.18571,2.44953 -6.27478,4.92304 -9,6.89258 -2.72522,1.96953 -5.11226,3.42906 -6.74805,3.86328 l -0.11914,0.0312 -22.70898,20.90039 -0.008,0.008 c -1.7087,1.72335 -3.28044,2.69239 -4.61524,3.94141 -1.27983,1.19758 -2.27297,2.73289 -2.81445,5.23633 -2.71063,1.1121 -4.73488,2.1545 -6.3086,3.6621 -1.50836,1.44501 -2.58078,3.37165 -3.54296,6.02149 l -1.86914,-0.93555 -20.49024,22.53906 0.16211,0.31055 c 2.2122,4.22091 6.85555,7.05798 11.74024,9.71289 4.88468,2.65492 10.04003,5.13267 13.35156,8.41016 l 0.2539,0.25195 2.02344,-1.01172 c 0.7474,0.89571 1.32043,1.55937 2.00781,1.79297 0.70745,0.24042 1.55276,0.14803 2.74219,0.0996 0.5596,1.37675 1.01374,2.24666 1.80664,2.67383 0.81574,0.43947 1.80308,0.38454 3.3125,0.33984 l 7.10547,7.10547 2,-1 4.86523,4.86524 0.16602,0.0234 c 3.29229,0.45329 6.12829,2.46788 9.10156,4.39649 2.91581,1.89133 5.99713,3.67355 9.77344,3.58984 l 14.13281,11.10742 2.01563,-1.00976 16.85547,11.89844 0.12109,0.0176 c 2.01035,0.27745 6.0037,2.1604 9.7793,4.39844 3.7756,2.23804 7.42153,4.85509 8.92578,6.44922 l 0.0644,0.0684 8.33789,3.94726 17.9336,11.2129 1.92773,-0.96485 4.96484,4.96485 2.92579,-0.97461 c 0.47572,0.93347 0.80201,1.67016 1.33007,2.09179 0.52556,0.41963 1.33753,0.52978 2.37891,0.6836 v 1.91015 l 5.3125,3.1875 8.91211,1.98047 4.97266,5.9668 14.61328,5.8457 -0.96485,1.92774 5.40235,3.24023 7.08789,4.05078 0.0957,0.0137 c 3.85181,0.52868 8.86431,4.0363 11.7168,6.85938 l 0.2539,0.25195 2.03516,-1.01758 10,8 1.5625,-0.78125 v 1.88477 l 3.46094,-1.1543 1.71679,0.85938 c 2.17549,3.51625 5.99508,5.82396 9.95899,7.96484 4.02064,2.17152 8.19352,4.18853 11.00976,6.99024 l 0.21875,0.21875 2.88086,-0.96094 2.03125,4.05859 2.12305,-1.0625 4.83008,4.83008 12,4 7.03515,7.03516 0.16602,0.0234 c 0.91549,0.12666 2.41622,0.68 4.13086,1.4961 1.71464,0.8161 3.66224,1.88956 5.57812,3.03711 3.83178,2.29508 7.56247,4.92345 9.01172,6.33007 l 0.13086,0.12696 0.1836,0.0117 c 0.94623,0.0631 2.59286,0.61536 4.49218,1.47851 1.89933,0.86315 4.07731,2.02791 6.21875,3.29102 4.28289,2.52622 8.45886,5.48697 9.95899,7.07617 l 0.14844,0.15625 h 4.95312 c 1.54266,2.82874 4.36457,4.6744 7.3457,6.3418 3.08505,1.72551 6.33627,3.29991 8.56446,5.51367 l 0.0664,0.0664 7.80469,3.34571 L 470.5,343.99414 V 269 28.525391 l -24.48633,-1.326172 h -9.00195 z m -0.008,1 14.99219,0.699219 h 8.99805 L 469.5,29.474609 V 269 344.00586 l 0.98047,38.22851 -6.2461,-2.67773 c -2.39347,-2.3303 -5.6578,-3.90754 -8.6621,-5.58789 -3.04745,-1.70448 -5.78553,-3.51245 -7.125,-6.19141 L 448.30859,367.5 h -5.13672 c -1.77065,-1.80791 -5.75779,-4.59959 -9.98632,-7.09375 -2.16481,-1.27689 -4.36652,-2.45745 -6.3125,-3.3418 -1.85169,-0.84149 -3.39634,-1.36129 -4.60547,-1.48633 -1.6376,-1.56814 -5.2813,-4.11103 -9.11328,-6.40625 -1.93661,-1.15995 -3.90613,-2.24625 -5.66211,-3.08203 -1.66757,-0.79369 -3.0785,-1.31454 -4.20117,-1.50586 l -7.02149,-7.02148 -12,-4 -5.16992,-5.16992 -1.87695,0.9375 -1.96875,-3.94141 -3.17188,1.05664 c -2.97891,-2.85406 -7.08208,-4.86072 -10.9707,-6.96094 -3.99185,-2.15597 -7.69982,-4.43435 -9.68164,-7.74218 l -0.0762,-0.125 -2.31446,-1.15625 -2.53906,0.8457 v -2.11523 l -2.4375,1.21875 -10,-8 -2.00391,1.00195 c -2.95934,-2.86075 -7.68526,-6.23621 -11.84961,-6.86719 l -6.95703,-3.97656 -4.59765,-2.75977 1.03515,-2.07031 -15.38672,-6.15625 -5.02734,-6.0332 -9.08789,-2.01953 -4.6875,-2.8125 v -2.15235 l -0.43164,-0.0605 c -1.4038,-0.19415 -1.97563,-0.31893 -2.32227,-0.59571 -0.34664,-0.27677 -0.64349,-0.8705 -1.30273,-2.13867 l -0.19727,-0.37891 -3.11132,1.03711 -5.03516,-5.03515 -2.07227,1.03515 -17.50781,-10.94726 -8.25976,-3.91016 c -1.70573,-1.77303 -5.26724,-4.29935 -9.03907,-6.53515 -3.74637,-2.22072 -7.54669,-4.07963 -9.96679,-4.46875 l -17.20899,-12.14649 -1.98437,0.99024 -13.89649,-10.91797 -0.18554,0.008 c -3.54073,0.14793 -6.45563,-1.53588 -9.40235,-3.44727 -2.89231,-1.87609 -5.79878,-3.95351 -9.3164,-4.5 l -5.16016,-5.16015 -2,1 -6.89844,-6.89844 -0.21484,0.006 c -1.66843,0.0451 -2.53562,0.0492 -3.0293,-0.2168 -0.49367,-0.26596 -0.87472,-0.90091 -1.49219,-2.46679 l -0.1289,-0.32618 -0.35157,0.01 c -1.50431,0.0454 -2.24363,0.10619 -2.72851,-0.0586 -0.48488,-0.16479 -0.92609,-0.59188 -1.86719,-1.75586 l -0.25195,-0.3125 -2.06836,1.03515 c -3.49413,-3.33229 -8.55811,-5.76832 -13.29297,-8.34179 -4.73127,-2.57153 -9.04258,-5.30717 -11.13672,-9.02735 l 19.47656,-21.42187 2.17383,1.08593 0.1836,-0.54101 c 0.98564,-2.88792 2.03958,-4.72853 3.51562,-6.14258 1.47605,-1.41404 3.41033,-2.4252 6.19922,-3.55664 l 0.25195,-0.10156 0.0508,-0.26758 c 0.48876,-2.53571 1.38058,-3.81136 2.61329,-4.96484 1.2327,-1.15349 2.84932,-2.16015 4.64062,-3.9668 l 8.70313,-8.00781 2.05273,2.05273 V 125.5 h -0.5 -0.84375 l 13.13672,-12.0918 c 1.89854,-0.54732 4.22594,-2.00204 6.91211,-3.94336 2.75633,-1.99202 5.8479,-4.46844 9.02344,-6.91015 6.35107,-4.883427 13.09622,-9.593219 17.82031,-10.056643 l 0.25,-0.02539 L 212.2832,87.5 h 5.06055 l 0.12305,-0.322266 c 1.03439,-2.715276 2.54474,-3.69973 4.58593,-4.785156 1.96303,-1.04386 4.40987,-2.200292 7.00977,-4.802734 l 1.96875,0.984375 17.18164,-11.117188 13.28711,-4.08789 v -1.958985 c 3.85487,-0.410161 7.95308,-2.789862 11.42578,-4.101562 h -0.004 l 22.25,-8.169922 -0.0117,0.0059 c 22.88385,-7.7012 43.14039,-12.514522 66.92187,-16.691406 h 0.004 L 406.0332,28.009766 Z M 487.5,31.417969 V 32 447.20703 l 5.63477,-5.63476 3,1 0.21679,-0.2168 c 1.29445,-1.28489 3.85148,-3.1468 6.51953,-4.72461 2.66805,-1.57781 5.49435,-2.88017 7.20313,-3.13672 l 0.16211,-0.0234 3.26367,-3.26367 3.70703,-3.70703 h 5.60156 l -1.08398,-2.16602 4.72266,-1.17968 0.0527,0.0527 v -0.0664 l 2.6875,-0.67187 7.3125,-4.17773 v -2.85743 l 6.66992,-0.95312 5.14063,-3.08399 4.78906,-4.78906 1.92187,0.96289 5.47852,-3.28711 v -1.47461 l 1.59375,0.79688 0.25391,-0.2461 c 1.3882,-1.34114 5.16509,-3.96891 9.0332,-6.27734 1.93405,-1.15421 3.89867,-2.23753 5.61523,-3.06445 1.71657,-0.82692 3.20804,-1.39348 4.07813,-1.52344 l 0.10742,-0.0156 12.48828,-8.14454 13.70313,-6.96289 1.88086,-3.75976 2.88086,0.96094 0.21875,-0.21875 c 2.81624,-2.80171 6.98912,-4.81872 11.00976,-6.99024 3.92646,-2.12066 7.7009,-4.41273 9.88672,-7.87305 1.24808,0.0486 2.08982,0.14537 2.81641,-0.10156 0.68738,-0.2336 1.26041,-0.89726 2.00781,-1.79297 l 2.02344,1.01172 0.2539,-0.25195 c 2.78507,-2.76553 7.97075,-6.30514 11.72266,-6.86133 l 0.11914,-0.0176 20.85156,-14.89453 2.45508,1.22656 v -2.11523 l 2.59375,0.86523 15.16211,-11.5957 1.24414,1.24414 v -2.19531 l 0.45508,-0.34766 1.96094,1.95899 7.33203,-4.18946 7.13086,-4.07422 1.875,-3.74804 2.80078,0.93359 7.25781,-4.14844 0.0527,-0.0547 c 1.22108,-1.30115 2.0415,-2.17789 2.95704,-2.75977 0.91553,-0.58188 1.95444,-0.90824 3.72656,-1.08398 l 0.17773,-0.0176 0.125,-0.125 c 0.77665,-0.7689 2.3134,-1.91761 4.13086,-3.16602 l 0.0176,0.0176 v -0.0293 c 1.49326,-1.02513 3.15727,-2.11319 4.89258,-3.14453 1.92799,-1.14585 3.88462,-2.21646 5.59765,-3.0332 1.71304,-0.81674 3.20349,-1.37533 4.08399,-1.50586 l 0.16211,-0.0234 0.11523,-0.11523 c 1.41637,-1.40225 5.18503,-4.03056 9.04102,-6.32227 1.92799,-1.14585 3.88462,-2.21646 5.59765,-3.0332 1.71304,-0.81674 3.20349,-1.37533 4.08399,-1.50586 l 0.125,-0.0176 11.85351,-8.89062 2,1 7.33008,-5.4961 0.11719,0.11719 V 272 l 5.12891,-3.8457 -0.17774,-0.3711 C 792.041,262.76964 787.72887,257.17588 787.5,251.97852 l -0.006,-0.10743 -1.18555,-2.37109 h -1.5 l 1,-2 h -2 l 1,-2 h -2 l 0.79883,-1.59961 -0.2539,-0.25391 c -1.50683,-1.50682 -3.66457,-4.90805 -5.57422,-8.4414 -1.90965,-3.53335 -3.60544,-7.23443 -4.30469,-9.36133 l -0.17969,-0.55078 -1.91211,0.95703 -0.90625,-5.43359 -9.29883,-14.46485 -1.90039,0.95117 c -0.41071,-1.59283 -0.73745,-2.87296 -1.37304,-3.81445 -0.67439,-0.99894 -1.71265,-1.76549 -3.30664,-2.69726 l 0.95312,-2.86524 -2.14844,-3.22266 L 735.73633,173.08008 723.5,160.02344 V 159.5 h -0.49023 L 710.9707,146.65234 696.03906,131.60937 h -2.77734 c -3.86825,-7.20207 -11.15495,-12.5936 -17.36524,-17.42382 -1.26094,-0.98302 -3.14913,-2.18477 -4.84179,-3.48047 -1.69267,-1.2957 -3.16085,-2.71222 -3.58594,-3.87695 l -0.0508,-0.13868 -4.12305,-3.09375 -7.21094,-5.150388 -2.82812,0.941407 -1.28906,-2.623047 -16.23243,-10.253906 h -2.44531 c -1.15656,-2.622471 -3.6327,-4.370495 -6.28711,-5.914063 -2.76885,-1.610122 -5.73141,-3.046517 -7.65039,-4.951172 l -0.0586,-0.05859 -25.0625,-11.964843 -12.09766,-6.115235 -0.10547,-0.0059 c -1.47796,-0.08013 -4.8353,-1.152319 -8.17968,-2.400391 -3.34439,-1.248072 -6.73954,-2.661382 -8.5918,-3.404297 l -0.0137,-0.0039 -20.99805,-7.0625 -0.004,-0.002 C 530.25677,39.741873 502.77375,33.731846 488.07422,31.505859 Z m 1,1.189453 c 14.72764,2.267518 41.71891,8.179228 55.41602,12.964844 h 0.002 l 20.99219,7.0625 c 1.84152,0.738899 5.22967,2.147156 8.58789,3.40039 3.29637,1.230157 6.45686,2.292313 8.31836,2.431641 l 11.97265,6.052734 24.97461,11.921875 c 2.09643,2.033017 5.05578,3.461896 7.73438,5.019531 2.72114,1.582375 5.09726,3.286287 6.03515,5.728516 l 0.12305,0.320313 h 2.78906 l 15.74805,9.947265 1.55078,3.156249 3.17188,-1.058593 6.78906,4.849613 3.96679,2.97461 c 0.47618,1.1135 1.46607,2.13814 2.62305,3.12109 h -1.50195 l 2.70703,2.70703 v -1.67187 c 0.98511,0.75115 1.80654,1.31976 2.73242,1.96484 H 673 670.79297 l 2.70703,2.70703 v -2.51367 c 0.58907,0.41185 1.34483,0.9395 1.7832,1.28125 5.72677,4.45415 12.1301,9.38793 16.03516,15.52539 H 691 688.79297 l 2.70703,2.70703 v -2.4375 c 0.33126,0.53466 0.76786,1.01781 1.05664,1.57227 l 0.14063,0.26757 h 2.92382 l 4.85352,4.89063 h -1.68164 l 2.70703,2.70703 v -1.67383 l 8.75,8.81446 11.38867,12.15234 h -0.8457 l 2.70703,2.70703 v -0.7207 l 1.88672,2.01367 h -1.59375 l 2.70703,2.70703 v -1.51953 l 8.48437,9.05273 17.61329,21.55664 1.85156,2.77735 -1.05274,3.1582 0.35743,0.20313 c 1.80344,1.02277 2.71884,1.71945 3.32226,2.61328 0.60342,0.89382 0.93551,2.06648 1.43945,4.07226 l 0.1504,0.60547 2.15625,-1.07812 8.70117,13.53515 1.09375,6.56641 2.14648,-1.07422 c 0.79762,2.27494 2.31165,5.62705 4.13672,9.00391 1.85045,3.42381 3.85946,6.61638 5.51563,8.37304 L 781.19141,246.5 h 2 l -1,2 h 2 l -1,2 h 2.5 l 0.84179,1.68555 c 0.32093,5.51562 4.47272,10.95023 6.81836,15.67382 L 789.5,270.75 v -1.25 h -0.5 -2.20703 l 1.87305,1.87305 -6.71875,5.04101 -2,-1 -12.21875,9.16406 c -1.09316,0.19359 -2.49493,0.72186 -4.16797,1.51954 -1.75228,0.83544 -3.73144,1.91827 -5.67969,3.07617 -3.85061,2.28851 -7.51992,4.81813 -9.14453,6.40039 -1.09391,0.19246 -2.49946,0.7242 -4.17578,1.52344 -1.75228,0.83544 -3.73144,1.91827 -5.67969,3.07617 -1.55727,0.92552 -3.00014,1.87809 -4.38086,2.80664 V 301.5 h -0.5 -2.20703 l 1.95898,1.95898 c -1.70065,1.1717 -3.09961,2.24356 -3.95898,3.07227 -1.75682,0.1904 -2.97635,0.55147 -4.00781,1.20703 -1.04327,0.66306 -1.90336,1.60087 -3.08008,2.85547 l -6.75977,3.86133 -3.19922,-1.06641 -2.125,4.25195 -6.86914,3.92579 -6.66797,3.81054 -2.03906,-2.04101 -1.52148,1.16406 h -1.73047 l 0.75,0.75 -14.63672,11.19141 -3.40625,-1.13477 v 1.88477 l -1.54492,-0.77344 -21.18946,15.13476 c -4.06883,0.66968 -8.90855,4.04358 -11.82226,6.86133 l -2.08008,-1.04101 -0.25195,0.3125 c -0.9411,1.16398 -1.38231,1.59107 -1.86719,1.75586 -0.48488,0.16478 -1.2242,0.10402 -2.72852,0.0586 l -0.29296,-0.008 -0.15235,0.25 c -1.98182,3.30783 -5.68979,5.58621 -9.68164,7.74218 -3.88862,2.10022 -7.99179,4.10688 -10.9707,6.96094 l -3.17188,-1.05664 -2.11914,4.24024 -13.45703,6.83789 -12.43359,8.10937 c -1.08975,0.1937 -2.49478,0.73217 -4.17383,1.54102 -1.75531,0.84558 -3.73992,1.93968 -5.69336,3.10547 -3.75437,2.24055 -7.26394,4.66325 -8.92578,6.1914 L 559.5,402.19141 v 2.52539 l -4.52148,2.71289 L 554.5,407.19141 V 404.5 h -0.5 -2.20703 l 2.67383,2.67383 -1.56641,-0.78125 -5.21094,5.21094 -4.85937,2.91601 -7.33008,1.04688 v 3.14257 l -6.6875,3.82227 -2.3125,0.57812 V 421.5 h -0.5 -2.20703 l 1.82812,1.82812 -5.34765,1.3379 0.91797,1.83398 h -4.39844 L 513.5,429.79297 V 428.5 h -0.5 -2.20703 l 2,2 -3.07227,3.07227 c -2.00676,0.35327 -4.71476,1.63641 -7.35742,3.19921 -2.61133,1.54427 -4.99437,3.29347 -6.44141,4.67579 l -3.05664,-1.01954 -4.36523,4.36524 z M 558.79297,53.5 561.5,56.207031 V 53.5 H 561 Z m -290,6 2.70703,2.707031 V 59.5 H 271 Z m 323,6 2.70703,2.707031 V 65.5 H 594 Z m -338,2 2.70703,2.707031 V 67.5 H 256 Z m -5,2 2.70703,2.707031 V 69.5 H 251 Z m -94,63 1,1 1.70703,1.70703 1,1 V 133.5 h -0.5 -0.5 v -1 H 157 Z m -7,8 2.70703,2.70703 V 140.5 H 150 Z m 556,9 2.70703,2.70703 V 149.5 H 706 Z m -571,8 2.70703,2.70703 V 157.5 H 135 Z m 586,6 2.70703,2.70703 V 163.5 H 721 Z m -595,1 2.70703,2.70703 V 164.5 H 126 Z m 604,9 1,1 1.70703,1.70703 1,1 V 174.5 h -0.5 -0.5 v -1 H 730 Z m -625.89063,15.83984 -0.2832,0.33789 c -2.368338,2.79895 -6.527058,7.7999 -10.152343,12.9961 -3.487496,4.9987 -6.449086,10.08292 -6.865235,13.82617 h -2.410156 l 1,2 h -2.507812 l -6.191407,13 h -0.699218 l 0.474609,0.47461 -3.583984,7.52539 h -2.021485 l -4.40039,11 h -0.46875 l 0.335937,0.33594 L 61.0625,258.5 h -0.269531 l 0.191406,0.19141 -0.322266,0.80859 h -2.007812 l -5.402344,14.28125 -8.435547,22.04102 -4.291015,10.01757 L 34.265625,330.5 h -0.472656 l 0.376953,0.37695 -1.535156,6.04492 -0.002,0.004 c -3.391053,14.44709 -9.785373,50.97372 -9.501953,65.08399 v -0.043 L 21.5,425.99805 l 1.609375,28.01562 v 5.99805 l 0.002,0.0137 c 1.483355,29.20606 9.021846,63.2918 17.953125,91.12695 v 0.004 l 7.640625,22.5332 15.572266,-7.26758 8.83789,-7.85546 3.019532,1.00586 0.21875,-0.2168 c 2.695393,-2.68085 6.419635,-4.44361 10.003906,-6.39844 3.529896,-1.92517 6.926392,-4.06694 8.970703,-7.5625 L 97,544.55859 l 2.5,1.25 v -2.11523 l 2.53906,0.8457 2.25586,-1.12695 0.0566,-0.0566 c 1.54292,-1.52893 6.51519,-4.91865 11.55469,-7.91992 2.51975,-1.50064 5.06901,-2.91873 7.24219,-3.9961 2.17318,-1.07736 4.01121,-1.80942 4.92578,-1.94531 l 0.0918,-0.0137 7.21289,-4.1211 1.875,-3.74804 2.88086,0.96094 0.21679,-0.2168 c 1.29445,-1.28489 3.85148,-3.1468 6.51953,-4.72461 2.66805,-1.57781 5.49435,-2.88017 7.20313,-3.13672 l 0.1875,-0.0273 4.77148,-5.72657 1.9668,1.9668 5.09961,-5.09961 1.92187,0.96289 5.3125,-3.1875 3.83789,-4.79883 2.9629,0.98829 4.96484,-4.96485 1.92187,0.96289 5.28907,-3.17383 6.96289,-6.96289 14.35547,-5.12695 -0.95899,-2.88086 c 4.696,-0.28369 7.77474,-1.93826 10.44727,-3.68555 2.8042,-1.83337 5.21671,-3.69036 8.95703,-4.24609 l 0.0937,-0.0137 12.14062,-7.08203 4.79102,-4.79102 1.96094,0.98242 14.17968,-11.14257 11.96485,-3.98829 7.09961,-4.05859 0.0469,-0.0449 c 2.78507,-2.76553 7.97075,-6.30514 11.72266,-6.86133 l 0.16211,-0.0234 7.06054,-7.06054 1.74219,-0.8711 3,1 2.25586,-1.12695 0.0566,-0.0566 c 2.82774,-2.79828 7.90038,-6.48335 11.69727,-6.85742 l 0.17773,-0.0176 0.125,-0.125 c 1.29445,-1.28489 3.85148,-3.1468 6.51953,-4.72461 2.66805,-1.57781 5.49435,-2.88017 7.20313,-3.13672 l 0.14648,-0.0215 8.89453,-7.90625 3.01954,1.00586 0.21679,-0.2168 c 1.29445,-1.28489 3.85148,-3.1468 6.51953,-4.72461 2.66805,-1.57781 5.49435,-2.88017 7.20313,-3.13672 l 0.23242,-0.0352 2.79297,-4.65234 1.86328,1.86328 10.09961,-8.08008 2.16016,1.08008 2.03125,-4.05859 2.78515,0.92773 2.19922,-1.09961 12.41797,-7.24414 -0.93164,-1.86133 8.03711,-2.00976 -4.4336,-7.75781 -7.60351,-1.90039 0.93164,-1.86133 -12.59961,-7.34961 -3.01758,1.00586 -1.74219,-0.8711 -6.99023,-6.99023 -7.05859,-4.0332 -7.19336,-4.11133 -2.80078,0.93359 -2.03125,-4.05859 -2.12305,1.0625 -4.86328,-4.86328 -6.97656,-0.9961 c -2.77792,-4.5605 -7.55591,-6.34071 -11.85743,-8.83593 h -0.002 c -3.62956,-2.11108 -9.02797,-5.5122 -14.4707,-8.58008 -5.20556,-2.9342 -10.35457,-5.47081 -14.23242,-6.39258 l 1.0332,-2.06641 -0.61719,-0.14453 c -1.49148,-0.35004 -2.9258,-0.5931 -4.08203,-1.0918 -1.15623,-0.49869 -2.03217,-1.20466 -2.56445,-2.5996 l -0.0801,-0.20899 -12.69336,-4.88281 1.01172,-2.02344 -0.54883,-0.18164 c -2.73784,-0.90295 -5.48767,-2.7595 -8.3125,-4.35352 -1.73203,-0.97735 -3.51072,-1.80957 -5.34375,-2.28515 V 283.5 h -0.5 -2.20703 l 0.0312,0.0312 c -0.18095,-0.001 -0.35869,-0.0268 -0.54102,-0.0176 l -1.77929,-2.7793 -12.5586,-6.96093 -1.78515,0.63867 -4.83399,-5.80078 -7.13867,-4.08008 -7.46289,-1.86523 1.08398,-2.16602 h -5.54687 c -0.42265,-1.02188 -0.9953,-1.97328 -1.76172,-2.78711 V 257.5 h -0.23438 c -0.85032,-0.85095 -1.82921,-1.59972 -2.9121,-2.18945 -2.14655,-1.16898 -4.59522,-1.7511 -6.85352,-1.75586 v -2.36328 l -2.36914,1.18359 -4.87109,-5.84375 -0.19141,-0.0273 c -3.25967,-0.44797 -6.025,-2.4621 -8.97266,-4.39454 -2.81325,-1.84432 -5.83867,-3.5564 -9.5957,-3.56835 v -2.84961 l -2.46094,-1.23047 -2.78515,0.92773 -2.03125,-4.05859 -2.1875,1.09375 -24,-16 -1.53516,0.76758 v -1.88477 l -3.36523,1.12109 -6.91407,-6.91406 -0.18554,-0.0117 c -1.84291,-0.12709 -2.86069,-0.42424 -3.74414,-0.99609 -0.88346,-0.57185 -1.67281,-1.47429 -2.92188,-2.84375 l -0.25391,-0.2793 -2.01562,1.00977 -5,-5 -2.06641,1.03125 z m 0.19922,1.32422 19.86524,12.91211 1.93359,-0.96875 5,5 2.00781,-1.00195 c 1.06778,1.1766 1.88186,2.12014 2.83985,2.74023 0.10378,0.0672 0.24365,0.0936 0.35156,0.1543 H 134 131.79297 l 2.70703,2.70703 v -2.53125 c 0.86097,0.40516 1.86325,0.67861 3.25977,0.79102 l 7.0332,7.0332 0.0723,0.0723 2.63477,2.63476 v -1.39844 l 2.46484,-1.23242 24,16 1.8125,-0.90625 1.96875,3.94141 3.21485,-1.07227 1.53906,0.76953 v 3.21289 l 0.52148,-0.0215 c 3.68667,-0.15321 6.61001,1.53275 9.52735,3.44531 2.85627,1.87253 5.69075,3.94741 9.16797,4.4961 l 5.15234,6.18359 1.63086,-0.81641 v 1.71289 l 0.52148,-0.0215 c 2.17761,-0.0905 4.70439,0.51711 6.85352,1.6875 0.65689,0.35774 1.17788,0.8571 1.74414,1.3125 h -0.82617 l 2.70703,2.70703 v -0.6582 c 0.36403,0.53248 0.81615,1.02233 1.0293,1.61914 l 0.11914,0.33203 h 4.54297 l -0.91797,1.83398 8.53906,2.13477 6.86133,3.91992 5.16601,6.19922 2.01563,-0.7207 11.9414,6.61914 1.94532,3.03711 0.30078,-0.0254 c 0.68469,-0.0589 1.35982,0.19111 2.03906,0.29101 l 1.41797,1.41797 v -1.21484 c 1.61628,0.45607 3.22889,1.13513 4.85156,2.05078 2.60769,1.47148 5.23374,3.18137 7.97266,4.1914 l -1.01758,2.03516 13.38086,5.14649 c 0.64831,1.46895 1.70756,2.38912 2.94727,2.92382 1.13035,0.48754 2.39779,0.70851 3.64453,0.98243 l -1.01758,2.0371 0.63867,0.13086 c 3.65655,0.74289 9.12289,3.44624 14.53711,6.49805 5.41422,3.05181 10.80052,6.44525 14.46094,8.57422 4.4805,2.5993 9.12306,4.29538 11.66992,8.6875 l 0.12109,0.21094 7.07422,1.00976 5.13672,5.13672 1.87695,-0.9375 1.91407,3.83008 h -0.89844 L 354.5,340.20703 V 337.5 h -0.5 -0.91992 l 2.86523,-0.95508 6.80664,3.88867 6.94141,3.9668 7.00976,7.00977 2.25782,1.1289 2.98242,-0.99414 11.40039,6.65039 -1.07031,2.13867 8.39843,2.09961 3.56641,6.24219 -7.96484,1.99024 1.07031,2.13867 -11.58203,6.75586 -1.80078,0.90039 -3.21485,-1.07227 -1.96875,3.94141 -1.83984,-0.91992 -9.90039,7.91992 -2.13672,-2.13672 -3.24023,5.39844 c -2.00171,0.36706 -4.67761,1.63072 -7.29688,3.17968 -2.61133,1.54427 -4.99437,3.29347 -6.44141,4.67579 l -3.0371,-1.01368 -9.1504,8.13477 c -2.00783,0.35014 -4.7232,1.63723 -7.37109,3.20312 -2.66734,1.5774 -5.14763,3.38089 -6.58008,4.77539 -4.25103,0.50005 -9.13802,4.16954 -12.04297,7.0254 l -1.77929,0.88867 -3,-1 -2.25782,1.1289 -6.9746,6.97461 c -4.13853,0.69668 -9.10767,4.17074 -11.99024,7.00977 l -6.94336,3.9668 -12.03515,4.01171 L 253.5,455.39844 V 453.5 h -0.5 -2.20703 l 2.2539,2.25391 -2.10742,1.65625 -2.03906,-1.01758 -5.20898,5.20898 -11.88868,6.93555 c -3.92417,0.61842 -6.49997,2.58073 -9.23242,4.36719 -2.76329,1.80662 -5.69719,3.45384 -10.58398,3.5957 l -0.67383,0.0195 1.05859,3.17383 -13.64453,4.87305 -7.03711,7.03711 -4.71093,2.82617 -2.07813,-1.03711 -5.03516,5.03515 -3.03711,-1.01171 -4.1621,5.20117 -4.6875,2.8125 -2.07813,-1.03711 -4.90039,4.90039 -2.0332,-2.0332 -5.26758,6.32031 c -2.00499,0.35827 -4.70168,1.63357 -7.33594,3.1914 -1.56586,0.92601 -2.58668,1.84546 -3.86328,2.80274 V 517.5 h -0.5 -2.20703 l 2.3418,2.3418 c -0.70401,0.54206 -1.71587,1.13067 -2.2129,1.60547 l -3.17578,-1.0586 -2.125,4.25195 -6.86914,3.92579 0.17383,-0.0606 c -1.20543,0.17911 -3.01357,0.94487 -5.2207,2.03906 -2.20713,1.0942 -4.77405,2.52064 -7.31055,4.03125 -0.31882,0.18988 -0.57776,0.37482 -0.89453,0.56641 V 532.5 h -0.5 -2.20703 l 2.66797,2.66797 c -4.65259,2.8159 -9.0159,5.75038 -10.71094,7.39844 l -1.78906,0.89453 -3.46094,-1.1543 v 1.88477 l -1.5,-0.75 -2.359375,1.17968 -0.07617,0.13282 c -1.877195,3.31749 -5.137324,5.38905 -8.685547,7.32421 -3.450284,1.88176 -7.128981,3.65108 -9.964844,6.36524 l -3.029296,-1.00977 -9.16211,8.14453 -14.429687,6.73243 -7.277344,-21.46289 -0.002,-0.008 C 33.106003,523.0764 25.585886,489.04592 24.109375,459.97461 v -5.98828 L 22.5,426.00195 24.130859,402.01172 v -0.0215 c -0.276541,-13.7678 6.105303,-50.47105 9.47461,-64.82812 l 0.002,-0.008 1.384765,-5.45508 L 36.5,333.20703 V 330.5 H 36 35.296875 l 6.177734,-24.33984 4.269532,-9.96289 8.443359,-22.0586 3.908203,-10.33594 2.404297,2.4043 V 263.5 H 60 58.210937 l 1.134766,-3 h 1.992188 L 61.753906,259.46094 63.5,261.20703 V 258.5 H 63 62.138672 L 64.896484,251.60352 66.5,253.20703 V 250.5 H 66 65.337891 l 4,-10 h 1.978515 L 75.017578,232.72461 76.5,234.20703 V 231.5 H 76 75.601562 l 5.714844,-12 h 3.492188 l -1,-2 h 1.664062 L 85.5,217.0293 c 0.185164,-3.25425 3.194901,-8.63442 6.787109,-13.78321 1.572279,-2.25358 3.234825,-4.40946 4.822266,-6.42968 L 99.5,199.20703 V 196.5 H 99 97.345703 c 1.839693,-2.3315 3.496447,-4.34443 4.755857,-5.83594 z M 745.79297,193.5 748.5,196.20703 V 193.5 H 748 Z m -646.000001,5 2.707031,2.70703 V 198.5 H 102 Z m 11.000001,8 2.70703,2.70703 V 206.5 H 113 Z M 147.5,216.69336 V 217.5 H 147 145.08203 Z M 193.79297,221.5 196.5,224.20703 V 221.5 H 196 Z M 83.792969,222.5 86.5,225.20703 V 222.5 H 86 Z m 131.000001,10 2.70703,2.70703 V 232.5 H 217 Z m 7,0 2.70703,2.70703 V 232.5 H 224 Z m 556,14 2.70703,2.70703 V 246.5 H 780 Z m -522,35 2.70703,2.70703 V 281.5 H 258 Z m 544.04883,2.39258 -0.31641,0.94922 -0.8418,2.52539 -2.79882,-0.9336 -4.57422,4.06641 h -0.51758 l 0.24414,0.24414 -4.15234,3.68945 -3.01954,-1.00586 -0.21679,0.2168 c -1.29445,1.28489 -3.85148,3.1468 -6.51953,4.72461 -2.66805,1.57781 -5.49435,2.88017 -7.20313,3.13672 l -0.16211,0.0234 -3.9707,3.9707 -3,3 h -5.60156 l 1.08398,2.16602 -7.46289,1.86523 -7.3125,4.17773 v 2.85743 l -6.66992,0.95312 -5.14063,3.08399 -4.78906,4.78906 -2.12305,-1.0625 -2.03125,4.05859 -2.78515,-0.92773 -2.25391,1.12695 -0.0547,0.0527 c -1.3882,1.34115 -5.16509,3.96892 -9.0332,6.27735 -1.93405,1.15421 -3.89867,2.23753 -5.61523,3.06445 -1.71657,0.82692 -3.20804,1.39348 -4.07813,1.52344 l -0.10937,0.0156 -14.06446,9.24219 -12.12304,5.85938 -1.88282,3.76562 -2.88086,-0.96094 -0.21875,0.21875 c -2.81624,2.80171 -6.98912,4.81872 -11.00976,6.99024 -3.92646,2.12066 -7.7009,4.41273 -9.88672,7.87305 -1.24808,-0.0486 -2.08982,-0.14537 -2.81641,0.10156 -0.68738,0.2336 -1.26041,0.89726 -2.00781,1.79297 l -2.02344,-1.01172 -0.2539,0.25195 c -2.78507,2.76553 -7.97075,6.30514 -11.72266,6.86133 l -0.16211,0.0234 -0.11523,0.11523 c -1.49536,1.48075 -3.90773,3.36592 -6.45508,4.91406 -2.54735,1.54815 -5.25054,2.75276 -7.24024,2.94336 l -0.17968,0.0176 -6.87305,6.87305 -2.40039,-1.20117 v 2.11523 l -2.63477,-0.87891 -7.09179,7.0918 c -2.38403,-0.0587 -4.35128,0.39351 -5.98047,1.41797 -1.01174,0.6362 -1.87303,1.53636 -2.67774,2.5625 h -1.32226 l 0.7832,0.7832 c -0.21545,0.31133 -0.44053,0.59938 -0.64648,0.93946 l -1.84571,-1.84571 -7.33203,4.18946 -7.13086,4.07421 -1.875,3.74805 -2.88086,-0.96094 -0.21679,0.2168 c -1.29445,1.28489 -3.85148,3.1468 -6.51953,4.72461 -2.66805,1.57781 -5.49435,2.88017 -7.20313,3.13672 l -0.16211,0.0234 -0.11523,0.11523 c -3.2457,3.21628 -7.40614,5.58764 -11.78907,6.875 l -0.57421,0.16992 0.99023,1.97657 -7.5293,1.88281 -0.0976,0.0957 c -1.41637,1.40225 -5.18503,4.03056 -9.04102,6.32227 -1.92799,1.14585 -3.88462,2.21646 -5.59765,3.0332 -1.71304,0.81674 -3.20349,1.37533 -4.08399,1.50586 l -0.16211,0.0234 -0.11523,0.11523 c -1.21452,1.20507 -3.84103,3.06224 -6.56055,4.6543 -2.71951,1.59206 -5.59135,2.93648 -7.17187,3.20898 l -0.0879,0.0137 -7.11523,4.06641 -11.89453,9.91211 h -4.9707 l -23.88282,15.92383 -2.1875,-1.09375 -2.03125,4.05859 -3.92382,-1.30859 0.75585,1.1875 c 2.69599,4.2351 7.91567,7.05227 12.92188,7.16992 v 2.99805 l 0.43164,0.0605 c 3.74726,0.51424 7.75199,3.28934 11.79297,5.95118 3.87147,2.55017 7.79606,4.94737 11.77539,4.99609 v 3.36523 l 2.40039,-1.20117 5,5 2,-1 4.96484,4.96485 3.01954,-1.00586 9,8 2.1289,-0.70899 -1,1.99805 3.73242,-1.24414 1.875,3.74804 7.32422,4.18555 2.88281,-0.96094 3.88672,4.85938 7.56055,1.89062 -0.93164,1.86133 12.59961,7.34961 3.01758,-1.00586 1.76953,0.88477 14.0664,11.05273 0.13477,0.0195 c 3.85181,0.52868 8.86431,4.0363 11.7168,6.85938 l 0.2539,0.25195 1.99805,-1 4.86523,4.86524 0.16602,0.0234 c 1.73172,0.2395 4.23157,1.41741 6.69531,2.81055 2.46374,1.39314 4.91112,2.98728 6.69922,4.04297 3.56403,2.10647 10.46034,6.28459 17.32617,10.10937 6.59235,3.67243 12.94613,6.8924 16.65821,7.80274 l -1.04102,2.08008 0.61719,0.14453 c 1.49148,0.35004 2.9258,0.5931 4.08203,1.09179 1.15623,0.4987 2.03217,1.20467 2.56445,2.59961 l 0.0566,0.15039 3.375,2.24805 1.92774,-0.96289 c 1.09762,1.36514 2.18535,2.23677 3.40625,2.75391 1.14546,0.48519 2.4833,0.69907 3.97461,0.96875 l -0.97852,1.95703 0.54883,0.18164 c 2.73784,0.90295 5.48767,2.7595 8.3125,4.35351 2.11125,1.19135 4.27952,2.24072 6.54883,2.58399 l 0.79492,0.79492 v -0.76172 c 0.40326,0.0303 0.80671,0.0617 1.2168,0.041 l 1.77929,2.77929 12.5586,6.96094 1.78515,-0.63867 4.83399,5.80078 7.13867,4.08008 7.46289,1.86523 -1.08398,2.16602 h 5.54687 c 0.91628,2.21541 2.71994,3.99775 4.9082,5.18945 2.14655,1.16898 4.59522,1.7511 6.85352,1.75586 v 2.36328 l 2.36914,-1.18359 5,6 2.0918,-1.04688 18.96093,12.97461 3.51368,-1.17187 0.0547,-0.28711 c 0.74425,-3.89298 3.70901,-7.19122 6.82422,-9.70508 l 0.26953,-0.2168 -1.0332,-3.09765 0.72656,-1.08985 1.22266,1.22266 V 652.5 h -0.23242 l 0.0879,-0.13086 c 2.23105,-0.83224 3.72557,-2.15479 4.86719,-3.73828 1.17954,-1.6361 2.04308,-3.51836 3.17773,-5.44727 h 0.002 v -0.002 c 1.05259,-1.80587 3.18837,-5.41143 5.36719,-8.87109 2.17882,-3.45967 4.4473,-6.81117 5.58594,-7.95899 l 0.13086,-0.13281 0.0117,-0.18555 c 0.24843,-3.7169 2.38759,-6.27801 4.1875,-9.80664 l 9.55273,-18.99414 v -0.002 c 6.32509,-12.86101 14.49073,-34.98428 18.65039,-48.81641 19.31306,-64.16662 23.14817,-132.76816 9.8711,-198.47265 -3.14264,-15.55305 -6.89779,-30.93463 -12.02735,-45.97266 -1.90479,-5.58541 -4.00056,-14.44297 -7.32031,-19.25195 z m 0.26562,2.36719 c 2.81078,4.68692 4.86064,12.69728 6.67969,18.03125 5.11043,14.98194 8.85483,30.32072 11.99219,45.84765 13.2429,65.53538 9.41924,133.97308 -9.84766,197.98633 v 0.002 c -3.06701,10.19875 -8.3492,24.96523 -13.43164,37.13477 V 583.5 h -0.5 -2.20703 l 2.43164,2.43164 c -1.68263,4.00263 -3.34148,7.72339 -4.88281,10.85742 l -9.54883,18.98633 c -1.71562,3.36257 -3.93913,6.06447 -4.26172,10.0332 -1.34747,1.4003 -3.46193,4.56396 -5.60742,7.97071 -2.18868,3.47532 -4.32931,7.08431 -5.38672,8.89843 -1.16459,1.98014 -2.02502,3.8434 -3.125,5.36914 -1.10046,1.5264 -2.41475,2.72493 -4.57617,3.48047 l -0.15821,0.0566 -0.61132,0.91602 h -1.27344 l 0.76367,0.76367 -1.10742,1.66211 0.98047,2.94336 c -3.02879,2.49385 -5.93679,5.733 -6.81836,9.73242 l -2.53321,0.84571 L 737.5,661.89453 V 659.5 h -0.5 -2.20703 l 1.7168,1.7168 -8.47071,-5.79493 -1.9082,0.95313 -5,-6 -1.63086,0.81641 v -1.71289 l -0.52148,0.0215 c -2.17761,0.0905 -4.70439,-0.51711 -6.85352,-1.6875 -0.61199,-0.33328 -1.09062,-0.8043 -1.625,-1.22266 V 644.5 h -0.5 -1.46875 c -0.37926,-0.54643 -0.84096,-1.05313 -1.06055,-1.66797 L 707.35156,642.5 h -4.54297 l 0.91797,-1.83398 -8.53906,-2.13477 -6.86133,-3.91992 -5.16601,-6.19922 -2.01563,0.7207 -11.94141,-6.61914 -1.94531,-3.03711 -0.30078,0.0254 c -0.4893,0.0421 -0.97071,-0.16759 -1.45703,-0.20898 V 618.5 h -0.5 -2.20703 l 0.47461,0.47461 c -1.53858,-0.46482 -3.07395,-1.14565 -4.61914,-2.01758 -2.60769,-1.47148 -5.23374,-3.18137 -7.97266,-4.19141 l 1.07031,-2.13867 -0.65625,-0.11914 c -1.84048,-0.336 -3.22692,-0.56349 -4.40039,-1.06054 -1.17346,-0.49706 -2.16696,-1.25353 -3.28906,-2.74805 l -0.25,-0.33203 -2.11523,1.05664 -2.69727,-1.79883 c -0.64551,-1.49802 -1.71952,-2.42435 -2.97266,-2.96484 -1.13035,-0.48754 -2.39779,-0.70851 -3.64453,-0.98243 l 1.01758,-2.03906 -0.63867,-0.1289 c -3.23941,-0.65639 -10.11678,-4.11308 -16.96094,-7.92579 -6.84416,-3.81271 -13.72872,-7.98022 -17.30469,-10.09375 -1.75189,-1.0343 -4.21358,-2.64033 -6.71484,-4.05468 -2.4239,-1.37062 -4.84917,-2.53878 -6.84375,-2.86719 l -5.17578,-5.17578 -2.04102,1.01953 c -1.96688,-1.90136 -4.69645,-3.96724 -7.55859,-5.37305 V 562.5 h -0.5 -2.20703 l 2.35547,2.35547 c -1.31844,-0.61766 -2.635,-1.10587 -3.90821,-1.30274 l -13.9707,-10.97656 -2.23047,-1.11523 -1.53906,0.51367 V 549.5 h -0.5 -2.20703 l 2.53125,2.53125 -1.26758,0.42383 -11.40039,-6.65039 1.07031,-2.13867 -8.4414,-2.10938 -4.11329,-5.14062 -3.11718,1.03906 -6.67578,-3.81446 -2.125,-4.25195 -2.26758,0.75586 1,-2 -3.8711,1.28906 -9,-8 -2.98046,0.99414 L 491.5,519.79297 V 517.5 h -0.5 -1.79297 l -0.10742,-0.10742 -0.21484,0.10742 h -0.0918 l 0.0312,0.0312 -1.72461,0.86133 -5,-5 -1.59961,0.79883 v -2.71289 l -0.52148,0.0215 c -3.71119,0.15562 -7.67912,-2.23801 -11.70313,-4.88867 -3.88301,-2.55778 -7.80131,-5.2921 -11.77539,-5.99219 v -3.12695 l -0.50781,0.008 c -4.19971,0.0593 -8.6601,-2.17312 -11.44532,-5.45703 l 1.70704,0.56836 1.96875,-3.94141 1.48046,0.74024 1.79688,1.79687 v -2.60742 L 474.15234,473.5 h 1.64063 L 478.5,476.20703 V 473.5 h 0.68164 l 12.10547,-10.08789 6.95117,-3.97266 c 1.89767,-0.36607 4.64971,-1.69333 7.35547,-3.27734 2.72403,-1.5947 5.27674,-3.39153 6.65039,-4.73047 1.09564,-0.18981 2.51132,-0.7264 4.19531,-1.5293 1.75228,-0.83544 3.73144,-1.91827 5.67969,-3.07617 3.82785,-2.27498 7.46028,-4.78302 9.09961,-6.36719 l 8.50781,-2.125 -1.04297,-2.08593 c 4.28465,-1.35177 8.33823,-3.65296 11.55664,-6.8086 2.00982,-0.34422 4.73883,-1.63927 7.39649,-3.21093 0.2079,-0.12295 0.30791,-0.24555 0.51367,-0.3711 L 560.5,428.20703 V 425.5 h -0.5 -1.35938 c 2.15105,-1.35136 4.21597,-2.78036 5.4375,-3.94727 l 3.17579,1.0586 2.125,-4.25196 6.86914,-3.92578 6.66797,-3.81054 2.19531,2.19531 0.32422,-0.57227 c 0.27279,-0.482 0.57165,-0.82876 0.85547,-1.24804 L 587.5,412.20703 V 409.5 h -0.13281 c 0.60861,-0.68536 1.24857,-1.26935 1.95703,-1.71484 1.50205,-0.94452 3.29248,-1.38215 5.6543,-1.28516 l 0.2207,0.008 6.93555,-6.93554 3.36523,1.12109 v -1.88477 l 1.59961,0.79883 7.17187,-7.17187 c 2.24802,-0.2741 4.90542,-1.48025 7.44141,-3.02149 2.56754,-1.56041 4.9406,-3.42363 6.51758,-4.96679 4.06951,-0.66831 8.91163,-4.04278 11.82617,-6.86133 l 2.08008,1.04101 0.25195,-0.3125 c 0.9411,-1.16398 1.38231,-1.59107 1.86719,-1.75586 0.48488,-0.16478 1.2242,-0.10402 2.72851,-0.0586 l 0.29297,0.008 0.15235,-0.25 c 1.98182,-3.30783 5.68979,-5.58621 9.68164,-7.74219 3.88862,-2.10021 7.99179,-4.10687 10.9707,-6.96093 l 3.17188,1.05664 2.11718,-4.23438 11.87696,-5.74023 14.02148,-9.21485 c 1.08923,-0.19451 2.49125,-0.73134 4.16797,-1.53906 1.75531,-0.84558 3.73992,-1.93968 5.69336,-3.10547 3.85907,-2.30303 7.52977,-4.83164 9.125,-6.34765 l 1.7832,-0.89063 3.21485,1.07227 1.96875,-3.94141 1.87695,0.9375 5.21094,-5.21094 4.85937,-2.91601 7.33008,-1.04688 v -3.14257 l 6.6875,-3.82227 2.05859,-0.51563 2.25391,2.25391 V 312.5 h -0.4375 l 4.66406,-1.16602 -0.91797,-1.83398 h 4.39844 l 3.29297,-3.29297 2,2 V 305.5 h -0.5 -0.79297 l 3.07227,-3.07227 c 2.00676,-0.35327 4.71476,-1.63641 7.35742,-3.19921 2.61133,-1.54427 4.99437,-3.29347 6.4414,-4.67579 l 3.03711,1.01368 4.62891,-4.11524 1.75586,1.75586 V 290.5 h -0.5 -0.18555 l 3.30078,-2.93359 3.20118,1.0664 z M 718.79297,308.5 721.5,311.20703 V 308.5 H 721 Z m -420,1 2.70703,2.70703 V 309.5 H 301 Z M 43.792969,310.5 46.5,313.20703 V 310.5 H 46 Z m 330.000001,12 2.70703,2.70703 V 322.5 H 376 Z m -34,7 2.70703,2.70703 V 329.5 H 342 Z m 44,0 2.70703,2.70703 V 329.5 H 386 Z m -17,16 2.70703,2.70703 V 345.5 H 369 Z m 13,7 2.70703,2.70703 V 352.5 H 382 Z m 49,2 2.70703,2.70703 V 354.5 H 431 Z m 37,22 2.70703,2.70703 V 376.5 H 468 Z m 171,4 2.70703,2.70703 V 380.5 H 639 Z m -277.91016,33 -0.10547,0.0527 -2.27734,1.13868 v 1.5 l -1.52148,-0.76172 -5.2461,3.14843 -23.76758,15.84571 -2.0625,-1.03125 -0.2539,0.25195 c -1.49536,1.48075 -3.90773,3.36592 -6.45508,4.91406 -2.54735,1.54815 -5.25054,2.75276 -7.24024,2.94336 l -0.17968,0.0176 -6.98047,6.98047 h -4.94531 l -23.88282,15.92383 -2.1875,-1.09375 -2.08398,4.16601 c -1.86417,-0.13483 -3.21848,-0.0624 -4.29492,0.56055 -1.05691,0.61162 -1.79526,1.73044 -2.625,3.33984 l -2.90235,-0.96679 -0.21875,0.21093 c -1.26483,1.21711 -3.86239,3.08737 -6.55859,4.6875 -2.6962,1.60014 -5.5459,2.93789 -7.16602,3.17774 l -0.18945,0.0273 -5.00586,6.00586 c -2.46187,0.0272 -5.43138,0.84616 -8.08789,2.26172 -2.62025,1.39625 -4.84831,3.36374 -5.88867,5.70313 -1.05891,-0.0548 -1.85527,-0.20029 -2.56055,0.0312 -0.38841,0.12751 -0.73524,0.39725 -0.99609,0.77929 -0.18175,0.2662 -0.32259,0.67594 -0.4707,1.06836 l -2.78907,-0.92969 -5.1914,3.11524 -7.07422,4.04297 -4.70703,5.64844 -1.92774,-1.92774 -11.66601,9.16797 h -0.58008 l 0.25586,0.25586 -2.23242,1.75391 c -3.04809,-0.18667 -5.90446,1.1071 -8.66016,2.6621 -2.82483,1.59402 -5.57466,3.45057 -8.3125,4.35352 l -0.54883,0.18164 0.97852,1.95703 c -1.49131,0.26968 -2.82915,0.48356 -3.97461,0.96875 -1.2209,0.51714 -2.30863,1.38877 -3.40625,2.75391 l -2.11524,-1.05664 -2.03125,4.05859 -2.8789,-0.96094 -0.21875,0.2168 c -0.76775,0.75877 -2.90714,2.26314 -5.69727,4.05078 -2.79012,1.78765 -6.25751,3.89404 -9.80078,5.99414 -7.08654,4.20022 -14.4809,8.38189 -17.38281,9.98242 -2.23025,1.2285 -5.15956,2.54422 -7.83985,4.14454 -2.56911,1.53394 -4.87132,3.35987 -6.15429,5.68359 h -4.98047 l -4.892579,4.89258 -1.998047,-1 -0.253907,0.25195 c -3.218846,3.18976 -9.158724,6.29586 -14.814453,9.39844 -5.483399,3.00804 -10.656106,5.99106 -12.988281,9.3789 l -3.017578,-1.00585 -4,5 -2.962891,-0.98829 -3.4375,3.4375 3.210938,9.63477 h 1.552734 l -1,2 h 2.335938 c 0.02879,1.76251 0.167269,3.18016 0.728515,4.38672 0.588606,1.26537 1.645573,2.29463 3.265625,3.37109 0.10712,1.83355 0.28065,3.29551 0.857422,4.57422 0.552953,1.2259 1.532661,2.25969 2.996094,3.29883 l -0.957031,1.91406 10,14 -0.988282,1.97656 3.179688,5.30079 0.05664,0.0488 c 3.30523,2.96776 6.330457,6.29099 6.83789,10.68555 l 0.01953,0.17578 0.126954,0.125 c 3.323316,3.2549 7.09458,9.07873 10.884765,14.42383 3.682124,5.1927 7.332804,9.90485 10.964844,11.49414 v 3.96875 l 8.91406,6.93359 -0.98437,2.95313 9.53711,9.80469 18.02929,17.33789 9.94141,10.35156 20.91602,17.60156 18.04687,14.33399 2.21484,-0.73828 0.38477,0.38476 v -0.51367 l 0.26953,-0.0898 c 1.39502,3.32015 4.99426,5.91289 8.90234,8.32812 4.08708,2.52585 8.49208,4.88159 10.97071,7.41797 l 0.11914,0.12305 0.17187,0.0234 c 4.37027,0.58904 10.56779,4.64403 13.70899,7.85352 l 0.25586,0.25976 2.07226,-1.03515 2.48242,1.58594 0.0469,0.0469 v -0.0176 l 6.25,3.99414 13.01367,6.71094 11.03906,5.56641 22.37891,8.0625 34.24805,10.64062 15.46484,3.51563 16.05469,3.25 h 7.49805 L 362.5,818.0332 V 468.98437 l -1,-17 V 413.5 Z m 0.23438,1 H 360.5 v 37.51562 l 1,17 V 817.9668 l -0.92773,6.96289 h -6.52149 l -15.94531,-3.22852 -15.41602,-3.5039 -34.1914,-10.6211 -22.30078,-8.03711 -10.98047,-5.53515 -3.7168,-1.91602 V 789.5 h -0.5 -2.20703 l 2.45898,2.45898 -9.00195,-4.64257 -6.75,-4.3125 V 781.5 h -0.5 -1.85547 l -0.11523,-0.0742 -0.14844,0.0742 h -0.0879 l 0.0293,0.0293 -1.74415,0.87304 c -3.31524,-3.28769 -9.16241,-7.15548 -13.85351,-7.85351 -2.68176,-2.68753 -7.03251,-4.99991 -11.02734,-7.46875 -4.04792,-2.50165 -7.65173,-5.16948 -8.72461,-8.24414 l -0.16211,-0.4668 -0.81055,0.26953 V 757.5 h -0.5 -2.20703 l 1.53125,1.53125 -1.22461,0.4082 -17.61328,-13.98633 -20.86328,-17.55859 -9.91993,-10.32812 -18.03124,-17.3418 -9.10157,-9.35547 1.01563,-3.04687 -9.08594,-7.06641 v -4.09961 l -0.32031,-0.12305 c -2.3374,-0.90132 -5.02861,-3.91786 -7.76367,-7.41015 L 104.5,671.20703 V 668.5 h -0.5 -2.07031 c -0.86336,-1.12544 -1.7138,-2.07796 -2.578128,-3.29688 -3.737483,-5.27077 -7.452732,-11.02157 -10.902343,-14.43945 -0.610689,-4.64822 -3.757212,-8.09576 -7.03711,-11.05078 l -2.841797,-4.73437 1.011719,-2.02344 -10,-14 0.888672,-1.77735 1.029297,1.0293 V 615.5 H 71 68.949219 c -0.741614,-0.66813 -1.324947,-1.33692 -1.660157,-2.08008 C 66.77471,612.2796 66.604151,610.89697 66.5,608.97266 l -0.01367,-0.25391 -0.214844,-0.13867 c -1.684417,-1.08389 -2.590575,-2.00413 -3.107422,-3.11524 -0.516846,-1.1111 -0.659117,-2.479 -0.664062,-4.46679 l -0.002,-0.49805 h -1.689453 l 1,-2 h -2.447266 l -2.789062,-8.36523 2.5625,-2.5625 3.037109,1.01171 2.980469,-3.72461 L 67.5,587.20703 V 584.5 H 67 65.439453 l 0.732422,-0.91602 3.042969,1.01368 0.208984,-0.33204 c 1.955069,-3.10841 7.248865,-6.25078 12.890625,-9.3457 1.710737,-0.93846 3.372957,-1.88929 5.064453,-2.83398 L 89.5,574.20703 V 571.5 H 89 88.427734 c 3.355646,-1.90838 6.477891,-3.84823 8.638672,-5.9082 l 2.033203,1.01562 5.107421,-5.10742 h 0.58594 L 107.5,564.20703 V 561.5 h 1.80859 l 0.13868,-0.27539 c 1.09079,-2.1769 3.38049,-3.99142 5.99218,-5.55078 2.61169,-1.55937 5.52291,-2.8637 7.8125,-4.125 v -0.002 c 2.91809,-1.60946 10.30976,-5.79077 17.40821,-9.99804 3.54922,-2.10364 7.02333,-4.21343 9.83007,-6.01172 2.6747,-1.71368 4.58415,-3.05058 5.58594,-3.98438 l 3.17774,1.0586 1.96875,-3.94141 1.92773,0.96289 0.25,-0.33203 c 1.1221,-1.49452 2.1156,-2.25099 3.28906,-2.74805 1.17347,-0.49705 2.55991,-0.72454 4.40039,-1.06054 l 0.65625,-0.11914 -1.07031,-2.13868 c 2.73892,-1.01003 5.36497,-2.71992 7.97266,-4.1914 2.77516,-1.56598 5.51328,-2.78533 8.30859,-2.54492 l 0.19727,0.0176 2.60742,-2.04687 1.73828,1.73828 V 513.5 h -0.5 -0.008 l 9.96875,-7.83203 2.07226,2.07226 5.29297,-6.35156 6.92578,-3.95703 4.8086,-2.88477 3.26172,1.0879 0.15429,-0.48243 c 0.19794,-0.61796 0.38124,-1.02798 0.54883,-1.27343 0.16759,-0.24546 0.29209,-0.33205 0.48242,-0.39454 0.38067,-0.12497 1.17153,-0.0253 2.47656,0.0156 l 0.35547,0.0117 0.12696,-0.33203 c 0.82099,-2.13552 3.03235,-4.10506 5.64648,-5.49805 2.61413,-1.39298 5.61895,-2.21009 7.88086,-2.18164 l 0.23828,0.004 5.07227,-6.08594 c 1.94921,-0.35045 4.64439,-1.65512 7.29883,-3.23047 0.68268,-0.40516 1.02654,-0.77879 1.67578,-1.20117 l 2.2207,2.2207 V 474.5 h -0.5 -1.03906 c 1.53753,-1.03794 3.21278,-2.10837 4.11718,-2.94727 l 3.17579,1.0586 0.19336,-0.38867 c 0.90308,-1.81605 1.58553,-2.79985 2.45117,-3.30079 0.86563,-0.50093 2.03921,-0.59621 4.05859,-0.42382 l 0.33789,0.0293 1.92774,-3.85742 1.8125,0.90625 L 298.15234,449.5 h 1.64063 L 302.5,452.20703 V 449.5 h 0.70703 l 7.06445,-7.06445 c 0.84547,-0.10309 1.77134,-0.40796 2.70704,-0.75 L 315.5,444.20703 V 441.5 h -0.5 -1.35547 c 1.3404,-0.55072 2.72089,-1.26701 4.06836,-2.08594 2.49679,-1.51742 4.76038,-3.31243 6.33789,-4.83008 l 1.98438,0.99219 24.23242,-16.1543 4.7539,-2.85156 2.47852,1.23828 v -2.5 z m -25.32422,24 2.70703,2.70703 V 438.5 H 336 Z m -111,26 2.70703,2.70703 V 464.5 H 225 Z M 379.5,475.04883 V 476 719 793 c 0,4.12208 -0.22275,11.71354 -0.20898,19.10547 0.0138,7.39193 0.2385,14.5374 1.22851,18.03125 l 0.12109,0.42773 0.43946,-0.0703 c 2.71929,-0.43967 7.61314,-0.1307 12.58594,0.34961 4.97279,0.48031 10.0447,1.11817 13.30859,1.28516 l 0.0293,0.002 10.01171,-0.63086 h 13.96875 l 11.02344,0.66211 12.03711,-1.08399 h -0.0137 c 21.90368,-1.34206 42.763,-4.84687 64.08398,-9.92187 l 0.0117,-0.002 31.44141,-8.90625 0.0117,-0.004 c 2.32876,-0.7909 4.66398,-1.1127 6.86914,-1.81055 2.13854,-0.67676 4.14615,-1.78521 5.78906,-3.98047 L 584.5,800.38281 v -2 l 11,-3 v -1.99023 c 4.80946,-0.58346 12.06862,-4.48006 19.02539,-8.41992 3.57952,-2.02721 7.0468,-4.0549 9.96484,-5.62305 2.91805,-1.56815 5.33479,-2.66886 6.58399,-2.85547 l 0.14258,-0.0215 13.75781,-11.79102 2.04492,2.04492 0.35352,-0.39258 c 4.54679,-5.07066 7.92589,-6.40893 13.30078,-10.12304 l 0.0137,-0.008 22.91797,-17.99218 0.0137,-0.0137 c 1.91892,-1.77207 4.5185,-3.56239 6.70508,-5.64454 1.98427,-1.8895 3.5887,-4.07681 4.01953,-6.72265 l 2.73047,1.82031 28.60742,-30.28516 0.008,-0.01 c 2.98283,-3.47758 6.27245,-6.50096 8.59961,-10.35938 l 0.21094,0.21094 v -0.51367 c 0.80654,-1.38717 1.49298,-2.87946 1.98047,-4.55274 l 0.0937,-0.32226 -5.51172,-4.4082 -1.95508,0.97851 c -2.7009,-3.47978 -7.55288,-6.26075 -11.84765,-6.83594 l -5.0254,-5.02539 -0.16601,-0.0234 c -2.01035,-0.27745 -6.0037,-2.1604 -9.7793,-4.39844 -3.7756,-2.23804 -7.42153,-4.85509 -8.92578,-6.44922 L 693.21484,655.5 h -4.96289 c -1.7664,-3.20462 -5.57644,-5.42858 -9.625,-7.58789 -4.17141,-2.22484 -8.58609,-4.39508 -11.26172,-7.25391 l -0.25586,-0.27148 -2.00976,1.00586 -4.96484,-4.96485 -2.92579,0.97461 c -0.47572,-0.93347 -0.80201,-1.67016 -1.33007,-2.09179 -0.52556,-0.41963 -1.33753,-0.52978 -2.37891,-0.6836 v -1.91015 l -5.3125,-3.1875 -8.91211,-1.98047 -4.97266,-5.9668 L 622.5,616.86133 V 616.5 h -0.5 -0.40234 l -1.90821,-0.76367 0.96485,-1.92774 -5.40235,-3.24023 -7.08789,-4.05078 -0.0957,-0.0137 c -3.85181,-0.52868 -8.86431,-4.0363 -11.7168,-6.85938 l -0.11914,-0.11719 -0.16406,-0.0234 c -3.85181,-0.52868 -8.86431,-4.0363 -11.7168,-6.85938 l -0.2539,-0.25195 -1.59766,0.79883 v -1.88477 l -3.46094,1.1543 -3.71094,-1.85547 c -2.04431,-3.49556 -5.4408,-5.63733 -8.9707,-7.5625 -3.58427,-1.95483 -7.30851,-3.71759 -10.0039,-6.39844 l -0.21875,-0.2168 -2.88086,0.96094 -2.03125,-4.05859 -2.12305,1.0625 -4.83008,-4.83008 -12,-4 -7.03516,-7.03516 -0.16601,-0.0234 c -3.52128,-0.48257 -6.48116,-2.68904 -9.71094,-4.83594 -3.1646,-2.10358 -6.62337,-4.10812 -11.09961,-4.14063 l -5.09179,-6.10937 -2.99415,0.99805 -4.0332,-5.04493 -2.02344,1.01368 c -2.44045,-3.1795 -5.61237,-4.86278 -9.61523,-4.84571 v -3.34765 l -2.39844,1.19921 c -0.64025,-0.8468 -1.46559,-1.88105 -2.51172,-2.60937 -0.5861,-0.40805 -1.22192,-0.72137 -1.90234,-0.79883 -0.51271,-0.0584 -1.0232,0.20644 -1.51758,0.48047 l -6.03515,-6.03516 -3.01954,1.00586 -9,-8 -2.1289,0.70899 1,-1.99805 -3.73242,1.24414 -1.875,-3.74805 -7.32422,-4.18554 -2.88672,0.96094 c -2.69629,-4.20727 -6.78751,-5.84292 -11.4375,-6.75782 l 0.98437,-1.96875 -0.57422,-0.16992 c -4.24888,-1.24738 -10.6741,-4.78906 -13.78906,-7.875 l -0.21875,-0.2168 -2.8789,0.96094 -1.875,-3.74805 -7.21485,-4.12304 -0.0957,-0.0137 c -0.93616,-0.12898 -2.45149,-0.69721 -4.19141,-1.53125 -1.73991,-0.83404 -3.72396,-1.9275 -5.70312,-3.08985 -3.95833,-2.32469 -7.90079,-4.9269 -9.89063,-6.29492 z m 1,1.86133 c 2.12267,1.4425 5.49271,3.67553 9.16797,5.83398 1.99458,1.1714 3.99757,2.27771 5.77734,3.13086 1.77977,0.85315 3.31749,1.46007 4.48633,1.62109 l -0.17969,-0.0625 6.86914,3.92578 2.125,4.25196 3.15235,-1.05078 c 0.6761,0.64689 1.47834,1.29752 2.3457,1.93945 H 414 411.79297 l 2.70703,2.70703 v -2.49414 c 3.2755,2.36917 7.47755,4.46387 10.82031,5.5293 l -1.0664,2.13086 0.65625,0.11914 c 1.42568,0.25895 2.75188,0.59816 4.01757,1.00781 h -1.13476 l 2.70703,2.70703 v -1 l 2,2 v -2.01953 c 1.56632,0.98804 2.97003,2.23382 4.07031,4.07031 l 0.20703,0.34375 3.16797,-1.05664 6.67578,3.81445 2.125,4.25196 2.26758,-0.75586 -1,2 3.8711,-1.28906 3.30078,2.93359 H 457 454.79297 l 2.70703,2.70703 v -2.42773 l 5.38477,4.78711 2.98046,-0.99414 6.10938,6.10937 0.35156,-0.30273 c 0.42037,-0.36119 0.80566,-0.45271 1.24805,-0.40235 0.44239,0.0504 0.94321,0.2768 1.44336,0.625 1.00029,0.69641 1.97077,1.85765 2.57812,2.69336 l 0.24805,0.3418 1.65625,-0.82813 v 2.71289 l 0.52148,-0.0215 c 4.12552,-0.17391 7.13733,1.43374 9.57422,4.79297 l 0.24805,0.34375 2.01758,-1.00781 3.96679,4.95507 3.00586,-1.00195 4.9336,5.91992 0.23828,-0.002 c 4.30788,-0.0483 7.60111,1.87441 10.79883,4 3.1422,2.08869 6.17957,4.36767 9.93554,4.94727 l 6.99024,6.99023 12,4 5.16992,5.16992 1.87695,-0.9375 1.96875,3.94141 3.16797,-1.05664 c 2.83597,2.71461 6.51422,4.48525 9.96485,6.36718 3.54822,1.93517 6.80835,4.00673 8.68554,7.32422 l 0.0762,0.13282 4.32032,2.16015 2.53906,-0.8457 v 2.11523 l 2.44141,-1.2207 c 2.95355,2.85515 7.6656,6.22079 11.82421,6.86133 2.94648,2.88849 7.79368,6.36467 12.0254,7.00586 l 6.95703,3.97656 4.59765,2.75977 -1.03515,2.07031 2.07422,0.83008 2.11523,2.11523 v -1.26953 l 11.19727,4.48047 5.02734,6.0332 9.08789,2.01953 4.6875,2.8125 v 2.15235 l 0.43164,0.0605 c 1.4038,0.19415 1.97563,0.31893 2.32227,0.59571 0.34664,0.27677 0.64349,0.8705 1.30273,2.13867 l 0.19727,0.3789 3.11132,-1.0371 5.03516,5.03515 2.02344,-1.00976 c 2.88096,2.92852 7.20729,5.05044 11.23242,7.19726 4.14858,2.21266 7.91446,4.47499 9.39648,7.42969 l 0.13868,0.27539 h 5.13281 c 1.72856,1.76997 5.22604,4.25441 8.95508,6.46484 3.73407,2.21342 7.51609,4.06128 9.9375,4.45899 l 5.05273,5.05273 0.17188,0.0195 c 4.12224,0.48892 9.19255,3.406 11.65429,6.79688 l 0.24805,0.34375 2.09375,-1.04688 4.45508,3.56446 c -0.26231,0.84333 -0.64943,1.583 -1.00781,2.3457 H 734 731.79297 l 1.7793,1.7793 c -1.86107,3.15405 -4.47797,5.81583 -7.07227,8.66601 V 693.5 h -0.5 -2.20703 l 2.11133,2.11133 c -0.33385,0.37309 -0.64412,0.70844 -0.97461,1.09375 l -28.00391,29.64453 -3.37109,-2.24805 -0.0547,0.86719 c -0.16383,2.66344 -1.75931,4.85598 -3.86523,6.86133 -2.09659,1.99646 -4.66672,3.76827 -6.66407,5.60742 L 674.5,744.08789 V 741.5 h -0.5 -2.20703 l 2.64062,2.64062 -14.33398,11.25196 c -0.98734,0.6821 -1.7171,1.13562 -2.59961,1.70117 V 755.5 h -0.5 -2.20703 l 2.0332,2.0332 c -0.43968,0.27969 -0.90384,0.59933 -1.32617,0.86914 V 756.5 h -0.5 -2.20703 l 2.2207,2.2207 c -2.66595,1.71747 -5.22414,3.54998 -8.01172,6.57422 l -1.97656,-1.97656 -14.29102,12.25195 c -1.59237,0.28707 -3.86894,1.368 -6.71679,2.89844 -2.94352,1.58184 -6.41265,3.61002 -9.98438,5.63281 -7.14344,4.04558 -14.77173,8.04579 -19.07422,8.40039 l -0.45898,0.0371 v 2.07813 l -11,3 v 2 l -21.80273,5.94726 -0.10352,0.14453 c -1.53062,2.14287 -3.35297,3.10934 -5.44531,3.77149 -2.09234,0.66215 -4.44745,0.98731 -6.88867,1.8164 l -31.375,8.88672 c -0.001,3e-4 -0.003,-2.9e-4 -0.004,0 l -0.0176,0.006 c -21.27137,5.06219 -42.06572,8.55315 -63.89453,9.89063 l -0.006,0.002 -11.9707,1.07617 -10.97657,-0.6582 h -14.03125 l -9.98046,0.62891 c -3.18708,-0.16428 -8.25612,-0.79985 -13.24024,-1.28125 -4.76582,-0.46033 -9.33231,-0.74821 -12.33008,-0.35938 -0.84593,-3.29405 -1.1292,-10.20331 -1.14257,-17.38476 C 380.27729,804.73296 380.5,797.15791 380.5,793 V 719 Z M 383.79297,481.5 386.5,484.20703 V 481.5 H 386 Z m 33,19 2.70703,2.70703 V 500.5 H 419 Z M 430.5,506.125 c 0.30859,0.13222 0.64746,0.22469 0.94336,0.375 H 430.5 Z m 0.29297,3.375 2.70703,2.70703 V 509.5 H 433 Z M 35.792969,519.5 38.5,522.20703 V 519.5 H 38 Z m 466.000001,5 2.70703,2.70703 V 524.5 H 504 Z M 70.792969,554.5 73.5,557.20703 V 554.5 H 73 Z m -10,7 L 63.5,564.20703 V 561.5 H 63 Z m 512.000001,3 2.70703,2.70703 V 564.5 H 575 Z M 92.792969,569.5 95.5,572.20703 V 569.5 H 95 Z m 448.000001,3 2.70703,2.70703 V 572.5 H 543 Z m 44,0 2.70703,2.70703 V 572.5 H 587 Z m -34,7 2.70703,2.70703 V 579.5 H 553 Z m 75,13 2.70703,2.70703 V 592.5 H 628 Z m 154,15 2.70703,2.70703 V 607.5 H 782 Z m -111,13 2.70703,2.70703 V 620.5 H 671 Z m -41,2 2.70703,2.70703 V 622.5 H 630 Z m 11,7 2.70703,2.70703 V 629.5 H 641 Z M 98.792969,663.5 101.5,666.20703 V 663.5 H 101 Z m 645.000001,1 2.70703,2.70703 V 664.5 H 746 Z m -41,5 2.70703,2.70703 V 669.5 H 705 Z m 7,0 2.70703,2.70703 V 669.5 H 712 Z m -605,2 2.70703,2.70703 V 671.5 H 107 Z m 624,14 2.70703,2.70703 V 685.5 H 731 Z m -600,15 2.70703,2.70703 V 700.5 H 131 Z m 566,11 2.70703,2.70703 V 711.5 H 697 Z m -549,4 1,1 h -2 l 2.70703,2.70703 v -2 l 1,1 V 715.5 H 148 Z m 549,5 2.70703,2.70703 V 720.5 H 697 Z m -542,4 2.70703,2.70703 V 724.5 H 155 Z m 19,14 2.70703,2.70703 V 738.5 H 174 Z m 492,6 1,1 h -2 l 2.70703,2.70703 v -2 l 1,1 V 744.5 H 666 Z m -434,33 2.70703,2.70703 V 777.5 H 232 Z m 104,41 2.70703,2.70703 V 818.5 H 336 Z"
     id="Selection #1" />
</svg>
