<?xml version="1.0" encoding="UTF-8" standalone="no"?>
<svg
   width="71.1201mm"
   height="71.4588mm"
   viewBox="0 0 840 844"
   version="1.1"
   id="svg3"
   sodipodi:docname="aperture-bad.svg"
   inkscape:version="1.1.1 (3bf5ae0d25, 2021-09-20)"
   xmlns:inkscape="http://www.inkscape.org/namespaces/inkscape"
   xmlns:sodipodi="http://sodipodi.sourceforge.net/DTD/sodipodi-0.dtd"
   xmlns="http://www.w3.org/2000/svg"
   xmlns:svg="http://www.w3.org/2000/svg">
  <defs
     id="defs7" />
  <sodipodi:namedview
     id="namedview5"
     pagecolor="#ffffff"
     bordercolor="#666666"
     borderopacity="1.0"
     inkscape:pageshadow="2"
     inkscape:pageopacity="0.0"
     inkscape:pagecheckerboard="0"
     inkscape:document-units="mm"
     showgrid="false"
     inkscape:zoom="3.1175889"
     inkscape:cx="134.39873"
     inkscape:cy="134.87987"
     inkscape:window-width="1920"
     inkscape:window-height="1020"
     inkscape:window-x="0"
     inkscape:window-y="0"
     inkscape:window-maximized="1"
     inkscape:current-layer="svg3" />
  <path
     style="color:#000000;fill:#000000;-inkscape-stroke:none"
     d="m 424.15234,18.496094 c -25.28527,-0.160847 -51.74929,1.804016 -73.24023,5.642578 l -0.0117,0.002 -19.5918,4.460937 h 0.008 c -15.17318,3.224926 -42.08243,10.050318 -55.54493,16.953125 l -0.73046,0.375 0.66796,0.476563 7.07813,5.056641 7.48828,1.871093 L 289.19141,55.5 h 5.60156 l 6.97265,6.972656 0.16602,0.02344 c 1.74087,0.238224 4.55376,1.528349 7.20703,3.105468 2.65327,1.57712 5.19208,3.445806 6.50977,4.753907 l 0.21679,0.216797 3.01954,-1.00586 9,8 3.07617,-1.027344 1.66601,0.833985 2.11914,4.238281 3,-1 2.03125,4.058594 2.1875,-1.09375 24,16 1.53516,-0.767578 v 1.884766 l 3.33008,-1.109376 c 1.23488,2.201666 3.09115,3.715486 5.16601,4.906246 2.20449,1.26517 4.61003,2.25582 6.70313,3.53711 l 35.14453,21.46289 0.12109,0.008 c 1.84291,0.12709 2.86069,0.42424 3.74414,0.99609 0.88346,0.57185 1.67281,1.47429 2.92188,2.84375 l 0.25391,0.2793 2.04101,-1.02149 c 0.7474,0.89571 1.32043,1.55937 2.00781,1.79297 0.73567,0.25001 1.57494,0.15205 2.85157,0.10352 l 0.60742,0.60742 -1.12305,2.24414 0.61719,0.14258 c 4.78195,1.11045 5.36631,1.14393 8.74414,4.84961 l 0.25391,0.28125 2.01562,-1.00977 4.78906,4.78906 5.28907,3.17383 1.92187,-0.96289 4.86523,4.86524 0.16602,0.0234 c 2.01035,0.27745 6.0037,2.1604 9.7793,4.39844 3.7756,2.23804 7.42153,4.85509 8.92578,6.44922 l 0.12695,0.13477 0.1836,0.0195 c 0.73523,0.0774 2.34918,0.68309 4.25585,1.60547 1.90668,0.92237 4.15284,2.15125 6.37305,3.45312 2.22021,1.30187 4.41486,2.67751 6.21875,3.89258 1.80389,1.21507 3.23259,2.28987 3.85352,2.90625 l 0.043,0.043 5.28711,3.17187 1.92187,-0.96289 4.96484,4.96485 2.92579,-0.97461 c 0.47572,0.93347 0.80201,1.67016 1.33007,2.09179 0.52556,0.41963 1.33753,0.52978 2.37891,0.6836 v 1.91015 l 5.3125,3.1875 8.91211,1.98047 5.01562,6.01758 0.19141,0.0273 c 3.85181,0.52868 8.86431,4.0363 11.7168,6.85938 l 0.21875,0.2168 3.09375,-1.03321 1.75586,0.87891 9.06445,8.05664 0.15039,0.0215 c 3.85181,0.52868 8.86431,4.0363 11.7168,6.85938 l 0.11914,0.11719 0.16406,0.0234 c 3.85181,0.52868 8.86431,4.0363 11.7168,6.85938 l 0.2539,0.25195 2.02344,-1.01172 c 0.7474,0.89571 1.32043,1.55937 2.00781,1.79297 0.74625,0.25361 1.58206,0.15373 2.89258,0.10547 l 18.91992,13.93945 21.57422,9.80664 -0.97461,1.95118 5.59375,3.35546 2.87891,-0.95898 c 2.30513,3.62751 4.95532,4.84437 9.05664,5.89648 l 0.625,0.16016 V 156 101.97461 l -1.03906,-10.392579 -0.36133,-0.07227 c -3.00411,-0.6046 -5.76759,-2.884602 -8.63867,-5.033204 -2.79984,-2.095286 -5.74814,-4.042884 -9.23047,-3.953125 l -8.00586,-8.005859 -0.18164,-0.01563 c -1.36828,-0.116449 -2.80118,-0.415418 -3.98633,-0.998047 -1.18515,-0.582629 -2.11601,-1.42515 -2.58984,-2.679687 l -0.0684,-0.185547 -22.16407,-10.832031 -11.01953,-6.259766 -20.88476,-8.144531 -26.18164,-9.88086 -26.76563,-6.53125 -44.30664,-7.855468 h -0.0117 C 454.07077,19.455131 439.32351,18.592602 424.15234,18.496094 Z M 424.14648,19.5 c 15.12919,0.09539 29.82978,0.952095 42.76563,2.623047 l 44.26562,7.845703 26.67383,6.509766 26.11914,9.857421 20.81446,8.117188 10.98046,6.240234 21.91211,10.705078 c 0.60509,1.385041 1.66768,2.377695 2.9375,3.001954 1.27823,0.628389 2.73374,0.905141 4.11914,1.041015 l 8.07032,8.070313 0.22265,-0.01172 c 3.19048,-0.178554 5.99258,1.650949 8.83399,3.777344 2.73397,2.045993 5.47954,4.318458 8.67187,5.091797 L 651.5,102.02539 V 156 261.2832 c -3.70763,-1.00436 -5.97056,-2.04121 -8.07227,-5.54101 l -0.20507,-0.34375 -3.16211,1.05468 -4.40625,-2.64453 1.02539,-2.04882 -22.42578,-10.19336 -19.09571,-14.07227 -0.17383,0.006 c -1.50431,0.0454 -2.24363,0.10619 -2.72851,-0.0586 -0.48488,-0.16479 -0.92609,-0.59188 -1.86719,-1.75586 l -0.25195,-0.3125 -2.07813,1.03906 c -2.95355,-2.85515 -7.6656,-6.22079 -11.82422,-6.86133 -2.93636,-2.87858 -7.75891,-6.33564 -11.98046,-6.99414 l -8.97071,-7.97461 -2.24414,-1.12109 -1.53906,0.51172 V 201.5 h -0.5 -2.20703 l 2.53125,2.53125 -1.23047,0.41016 c -2.93807,-2.84829 -7.64347,-6.20879 -11.80273,-6.87305 l -5.01563,-6.01953 -9.08789,-2.01953 -4.6875,-2.8125 v -2.15235 l -0.43164,-0.0605 c -1.4038,-0.19415 -1.97563,-0.31893 -2.32227,-0.59571 -0.34664,-0.27677 -0.64349,-0.8705 -1.30273,-2.13867 l -0.19727,-0.37891 -3.11132,1.03711 -5.03516,-5.03515 -2.07813,1.03711 -4.76367,-2.85938 0.0937,0.0742 c -0.74407,-0.73862 -2.17256,-1.79382 -3.99804,-3.02344 -1.82549,-1.22961 -4.0342,-2.6139 -6.27149,-3.92578 -2.23729,-1.31188 -4.50066,-2.55043 -6.44336,-3.49023 -1.84674,-0.89339 -3.29548,-1.4623 -4.35937,-1.61914 -1.70032,-1.77364 -5.277,-4.30919 -9.0586,-6.55078 -3.73407,-2.21342 -7.51609,-4.06128 -9.9375,-4.45899 l -5.18359,-5.18359 -2.07813,1.03711 -4.71093,-2.82617 -5.21094,-5.21094 -2.0293,1.01367 c -2.06652,-2.22505 -3.67693,-3.19446 -5.57031,-3.84961 V 135.5 h -0.5 -1.69141 l 0.29883,-0.59961 -1.40625,-1.40625 -0.2168,0.006 c -1.50431,0.0454 -2.24363,0.10619 -2.72851,-0.0586 -0.48488,-0.16479 -0.92609,-0.59188 -1.86719,-1.75586 l -0.25195,-0.3125 -2.04492,1.02148 c -1.06778,-1.1766 -1.88186,-2.12014 -2.83985,-2.74023 -1.02077,-0.66073 -2.24221,-0.99001 -4.07422,-1.13086 L 383.2207,107.17383 c -2.18689,-1.33871 -4.60105,-2.33095 -6.72656,-3.55078 -2.12551,-1.21984 -3.94715,-2.64625 -5.04687,-4.845706 L 371.25391,98.388672 368.5,99.306641 v -2.115235 l -2.46484,1.232422 -24,-16 -1.8125,0.90625 -1.96875,-3.941406 -3,1 -1.88086,-3.761719 -2.33399,-1.166016 -2.92383,0.972657 L 325.5,74.109375 V 71.5 h -0.5 -2.20703 l 1.82422,1.824219 -5.50196,-4.890625 -3.03515,1.011718 c -1.46055,-1.398097 -3.83228,-3.158046 -6.43164,-4.703125 -2.62937,-1.562911 -5.33025,-2.838266 -7.3711,-3.171875 L 295.20703,54.5 h -4.39844 L 291.72656,52.666016 287.5,51.609375 V 49.5 h -0.5 -2.20703 l 1.91015,1.910156 -3.49023,-0.873047 -6.19141,-4.421875 c 13.43698,-6.668185 39.62316,-13.374751 54.50196,-16.537109 h 0.004 l 19.56055,-4.455078 C 372.49691,21.299116 398.91658,19.340925 424.14648,19.5 Z m 82.64649,13 2.70703,2.707031 V 32.5 H 509 Z M 257.17969,53.423828 246.5,56.628906 V 57 58.191406 l -1.5,-0.75 -4.5,2.25 v 1.5 l -2,-1 v 2 l -2,-1 v 2 l -1.59961,-0.798828 -0.25391,0.253906 c -0.53278,0.53278 -1.75185,1.433276 -3.28711,2.4375 -1.53525,1.004225 -3.39895,2.131515 -5.28906,3.197266 -0.14578,0.0822 -0.27396,0.13734 -0.41992,0.21875 h -0.85742 l 0.29297,0.292969 c -1.54811,0.85066 -3.1189,1.698965 -4.45899,2.326172 -1.6357,0.765565 -3.02576,1.286348 -3.70117,1.386718 l -0.0977,0.01367 -5.14843,3.089844 -0.0508,0.05469 c -2.68904,2.97893 -3.75151,4.206646 -7.70899,4.841797 L 203.5,80.574219 v 2.945312 c -1.7884,-0.07271 -3.16921,0.201656 -4.35352,0.802735 -1.31432,0.667071 -2.45713,1.628762 -4.05664,2.714843 -2.74605,1.863926 -6.9354,4.575625 -10.77929,7.546875 -3.6822,2.846265 -7.00671,5.896986 -8.52344,8.818356 l -3.07617,-1.02539 -2,5 -2.88672,-0.96289 -0.2168,0.27735 c -1.22647,1.56007 -3.26098,3.77533 -5.44531,5.71875 -2.18433,1.94341 -4.54826,3.60986 -6.29883,4.10937 l -0.16016,0.0449 -0.10156,0.13282 c -6.90792,9.11173 -16.13359,13.48029 -28.65039,28.98828 -1.60338,1.97979 -3.34634,3.4136 -4.77148,5.05078 -1.36589,1.56911 -2.37917,3.39991 -2.60742,5.9414 -3.18705,1.49618 -7.3609,5.56261 -11.08399,10.11524 -3.71622,4.54424 -6.84463,9.43587 -7.83398,12.79101 l -2.105472,0.66993 -4.414062,6.24609 h -0.341797 l 0.201172,0.20117 -1.978516,2.79883 h -0.222656 l 0.130859,0.13086 -3.779297,5.3457 -0.603515,3.73047 c -1.48713,0.62029 -2.992828,1.93724 -4.509766,3.74024 -1.616841,1.92173 -3.228369,4.33376 -4.693359,6.86523 -2.781764,4.80682 -4.927906,9.86369 -5.625,12.98633 L 70.722656,221.30273 66.650391,232.5 h -2.458985 l 1,2 h -0.398437 l 0.470703,0.4707 c -1.365797,1.04139 -2.336184,2.03612 -2.896485,3.21094 -0.603257,1.2649 -0.789997,2.71931 -0.849609,4.59375 l -3.945312,3.94531 -3.884766,10.00977 -9.158203,21.09765 -8.064453,27.01563 -3.947266,11.02148 -8.199219,40.99414 L 36.5,351.32227 v -2.9043 c 1.246785,-0.075 2.185913,-0.10386 2.845703,-0.5 0.627494,-0.37675 1.094039,-1.19413 1.697266,-2.16797 l 1.917968,1.91797 11.199219,-8.80078 0.339844,0.33984 v -0.60742 l 2.683594,-2.10938 c 3.04809,0.18667 5.904452,-1.1071 8.660156,-2.66211 2.824835,-1.59401 5.574662,-3.45056 8.3125,-4.35351 l 0.548828,-0.18164 -0.980469,-1.95899 7.470703,-1.86718 23.873048,-14.64649 9.18945,-4.38867 18.91602,-13.93945 c 1.31046,0.0483 2.14635,0.15008 2.89258,-0.10352 0.68738,-0.2336 1.26041,-0.89726 2.00781,-1.79297 l 2.00586,1.00196 9.03515,-8.03125 3.02344,1.00586 0.21875,-0.22266 c 3.08425,-3.14281 9.43183,-7.43783 13.69141,-7.85156 l 0.17773,-0.0176 6.87305,-6.87305 2.40039,1.20117 v -2.11523 l 2.63477,0.87891 6.86523,-6.86524 0.5,0.5 v -0.51367 l 2.53906,0.8457 2.21875,-1.10937 16.02149,-11.44336 0.2207,0.2207 v -0.37891 l 4.58398,-3.27343 3,1 5.91016,-4.24414 13.04297,-8.73243 2.02539,1.01172 10,-8 1.96875,0.98438 12.23047,-7.85742 18.55859,-10.84766 14.47852,-7.46094 4.80078,-4.80078 1.99805,1 0.2539,-0.25195 c 2.78507,-2.76553 7.97075,-6.30514 11.72266,-6.86133 l 0.13086,-0.0195 13.85547,-10.88477 2.43945,1.21875 v -2.11523 l 2.63477,0.87891 0.21875,-0.21875 c 3.26169,-3.2617 7.37766,-5.48609 11.79687,-6.87696 l 0.55859,-0.17578 -0.99804,-1.99609 c 1.32986,-0.28986 2.4106,-0.49524 3.18164,-0.97266 0.33263,-0.20596 0.61476,-0.5185 0.90429,-0.82812 l 0.70313,0.70312 v -1.55859 c 0.18232,-0.25649 0.37577,-0.54559 0.57617,-0.86524 l 1.83985,1.83985 7.33203,-4.18946 7.13086,-4.07422 1.875,-3.74804 2.78515,0.92773 2.25586,-1.12695 0.0566,-0.0566 c 2.78507,-2.76553 7.97075,-6.30514 11.72266,-6.86133 l 0.0976,-0.0137 20.72266,-12.4336 -8.8418,-6.63281 -1.55273,0.77735 v -1.88477 l -3.41602,1.13867 -21.03906,-15.02734 -2.00976,1.00586 -23.86914,-15.91406 -0.13086,-0.008 c -1.84291,-0.12709 -2.86069,-0.42424 -3.74414,-0.99609 -0.88346,-0.57185 -1.67281,-1.47429 -2.92188,-2.843751 l -0.21875,-0.240234 -3.03516,1.011719 -9.03515,-8.03125 -1.98047,0.990234 -4.96484,-4.964844 -3.03125,1.011719 -11,-9 -3.06446,1.021484 -1.77734,-0.888671 L 294.5,77.537109 V 77.5 h -0.0508 l -16.25586,-11.978516 -0.125,-0.01758 c -1.8116,-0.249556 -4.61574,-1.507197 -7.25195,-3.064453 -2.63622,-1.557256 -5.14109,-3.418606 -6.45508,-4.785156 l -0.22071,-0.228516 -2.96875,0.990235 z m -0.35938,1.152344 4.00781,5.007812 3.06446,-1.021484 c 0.6079,0.605389 1.3891,1.263866 2.27148,1.9375 H 266 263.79297 L 266.5,63.207031 v -2.419922 c 1.1503,0.852712 2.4585,1.717302 3.80664,2.513672 2.63093,1.554137 5.36069,2.809344 7.45117,3.140625 L 281.9082,69.5 h -2.11523 L 282.5,72.207031 V 69.9375 L 292.76562,77.5 h -0.97265 L 294.5,80.207031 v -1.427734 l 2.23828,1.648437 2.22266,1.111328 2.93554,-0.978515 11,9 2.96875,-0.988281 5.03516,5.035156 2.01953,-1.009766 8.96485,7.968754 2.98632,-0.996098 c 1.0895,1.200198 1.90656,2.147268 2.87696,2.775388 1.01823,0.65909 2.23819,0.98743 4.0625,1.12891 l 24.15429,16.10156 1.99024,-0.99414 9.68554,6.91797 h -1.84765 l 2.70703,2.70703 v -2.0918 L 388.83984,133.5 h -0.0469 l 2.70703,2.70703 v -1.39844 l 2.44727,-1.22265 7.15625,5.36718 -19.32813,11.59766 c -2.74062,0.44844 -5.63711,2.16742 -8.27539,4.08399 V 152.5 h -0.5 -2.20703 l 2.38476,2.38477 c -1.21498,0.90608 -2.53529,1.80139 -3.43164,2.68359 l -1.78515,0.89258 -3.21485,-1.07227 -2.125,4.25195 -6.86914,3.92579 -6.66797,3.81054 -2.18359,-2.18359 -0.32812,0.54883 c -0.2643,0.43958 -0.39533,0.43914 -0.60938,0.75781 h -2.16992 l 1.20117,1.20117 c -0.18766,0.18297 -0.42823,0.6582 -0.62695,0.78125 -0.69777,0.43206 -1.66528,0.63335 -3.47461,1.0293 l -0.62696,0.13672 1.05274,2.10547 C 337.32462,175.08013 333.61664,177.14095 330.5,180 v -2.5 h -0.5 -2.20703 l 2.58984,2.58984 c -0.14464,0.13427 -0.32696,0.21554 -0.46875,0.35352 L 326.5,179.30664 v 1.88477 l -1.56055,-0.78125 -7.43945,5.8457 V 184.5 h -0.5 -2.20703 l 2.17578,2.17578 -6.21094,4.88086 c -0.72741,0.12033 -1.493,0.39029 -2.25781,0.66602 V 190.5 h -0.5 -2.20703 l 1.94726,1.94727 c -3.27674,1.35953 -6.58109,3.82399 -8.79687,5.96679 l -2.04297,-1.02148 -5.19922,5.19922 -14.36133,7.40039 -18.60156,10.87109 -11.76953,7.5625 -2.03125,-1.01562 -10,8 -1.97461,-0.98829 -13.53711,9.06641 -5.50976,3.95703 -3,-1 -4.41602,3.1543 V 248.5 h -0.5 -2.20703 l 1.76953,1.76953 -15.82031,11.30078 -1.78125,0.89063 L 185.5,261.63867 V 260.5 h -0.5 -2.20703 l 1.5,1.5 -6.42774,6.42773 -3.36523,-1.12109 v 1.88477 l -1.59961,-0.79883 -7.16602,7.16601 c -4.67196,0.5566 -10.60729,4.65174 -13.8496,7.875 l -3,-1 -6.38477,5.67578 V 285.5 h -0.5 -2.20703 l 2.6543,2.6543 -2.52735,2.24804 -2.05664,-1.02929 -0.25195,0.3125 c -0.9411,1.16398 -1.38231,1.59107 -1.86719,1.75586 -0.48488,0.16478 -1.2242,0.10402 -2.72852,0.0586 l -0.17382,-0.006 -19.09961,14.07422 -9.15039,4.37109 -23.787113,14.59375 -8.53125,2.13282 1.050782,2.0996 c -2.738917,1.01004 -5.364967,2.71993 -7.972657,4.19141 -2.775159,1.56598 -5.513279,2.78533 -8.308593,2.54492 L 56.845703,335.48437 54.5,337.32812 V 336.5 H 54 51.792969 l 1.654297,1.6543 -10.408204,8.17773 -2.132812,-2.13281 -0.332031,0.53906 c -0.876011,1.42164 -1.278587,2.04392 -1.742188,2.32227 -0.463601,0.27835 -1.199543,0.33934 -2.861328,0.43945 L 35.5,347.5293 v 3.14843 l -9.818359,4.46289 7.800781,-39.00585 3.933594,-10.97852 8.054687,-26.98438 6.958984,-16.03515 L 54.5,264.20703 V 261.5 H 54 52.707031 l 1.90625,-4.39063 3.814453,-9.83007 4.066407,-4.06641 0.0059,-0.19922 c 0.04935,-1.93934 0.235256,-3.28209 0.769531,-4.40234 0.489292,-1.02594 1.350236,-1.92072 2.701172,-2.9336 L 67.5,237.20703 V 234.5 H 67 66.308594 l -0.5,-1 h 1.541015 l 3.929688,-10.80273 2.09375,1.04882 0.11914,-0.65625 c 0.503529,-2.7599 2.823425,-8.28583 5.710938,-13.27539 1.443757,-2.49477 3.030204,-4.86854 4.591797,-6.72461 1.561593,-1.85607 3.116401,-3.17972 4.36914,-3.61718 l 0.28125,-0.0996 0.650391,-4.00977 3.544922,-5.01562 L 94.5,192.20703 V 189.5 H 94 93.240234 L 94.710937,187.41797 96.5,189.20703 V 186.5 H 96 95.359375 l 3.8125,-5.39453 2.240235,-0.71094 0.0703,-0.26562 c 0.41722,-1.55176 1.50547,-3.67403 2.95117,-5.98829 L 106.5,176.20703 V 173.5 h -0.5 -1.10547 c 1.21298,-1.88246 2.59474,-3.84535 4.14063,-5.75781 L 111.5,170.20703 V 167.5 h -0.5 -1.78906 c 0.02,-0.0245 0.0328,-0.0498 0.0527,-0.0742 3.75607,-4.59296 8.10936,-8.72793 10.9375,-9.96875 l 0.2793,-0.12109 0.0195,-0.30664 c 0.1481,-2.48897 1.08624,-4.08891 2.43359,-5.63672 1.34736,-1.54782 3.11831,-3.00792 4.79493,-5.07813 1.66376,-2.06136 3.12385,-3.50314 4.67382,-5.20508 L 134.5,143.20703 V 140.5 h -0.5 -1.04883 c 1.06445,-1.15302 2.22587,-2.58706 3.23828,-3.60352 l 0.60352,0.60352 1.70703,1.70703 1,1 V 137.5 h -0.5 -0.5 v -1 h -0.5 -1.4375 c 1.33579,-1.3298 2.50176,-2.33306 3.75,-3.48047 l 2.1875,2.1875 V 132.5 h -0.5 -1.12695 c 2.60509,-2.37276 5.03878,-4.61468 7.28711,-6.63281 L 150.5,128.20703 V 125.5 h -0.5 -1.43164 c 2.80258,-2.53405 5.43827,-5.07687 7.75195,-8.11133 2.02834,-0.63601 4.3347,-2.29703 6.50781,-4.23047 0.90552,-0.80564 1.4473,-1.53919 2.25391,-2.36914 l 2.41797,2.41797 v -2 l 1,1 V 109.5 h -0.5 -1.69141 c 0.58451,-0.64591 1.38979,-1.37455 1.83203,-1.92578 l 3.14844,1.04883 1.89258,-4.73438 2.31836,2.31836 v -1.84765 l 0.76562,0.25585 0.1875,-0.40429 c 1.25027,-2.69324 4.67015,-5.899696 8.46875,-8.83594 3.79861,-2.936244 7.96458,-5.635648 10.72852,-7.511719 1.6405,-1.113916 2.77605,-2.05301 3.94922,-2.648437 1.17317,-0.595427 2.39182,-0.885829 4.35742,-0.716797 l 0.54297,0.04687 v -3.15625 c 3.7426,-0.696459 5.26377,-2.178327 7.79883,-4.984375 l 4.95898,-2.97461 -0.18359,0.06445 c 0.93959,-0.139629 2.30789,-0.689708 3.97656,-1.470704 1.44671,-0.677109 3.12211,-1.572325 4.77734,-2.488281 L 227.5,71.207031 v -2.623047 c 1.55668,-0.899162 3.12121,-1.821552 4.40625,-2.662109 1.42042,-0.929112 2.44773,-1.700896 3.14062,-2.339844 L 237.5,64.808594 v -2 l 2,1 v -2 l 2,1 v -2.5 l 3.5,-1.75 2.5,1.25 v -2.4375 z M 297.79297,56.5 300.5,59.207031 V 56.5 H 300 Z m -56,5 2.70703,2.707031 V 61.5 H 244 Z m -5,4 2.70703,2.707031 V 65.5 H 239 Z m 101,12 2.70703,2.707031 V 77.5 H 340 Z m -47,3 2.70703,2.707031 V 80.5 H 293 Z m 345,5 2.70703,2.707031 V 85.5 H 638 Z m -435,2 2.70703,2.707031 V 87.5 H 203 Z m 176,14 2.70703,2.70703 V 101.5 H 379 Z m 4,3 2.70703,2.70703 V 104.5 H 383 Z m 288.70703,4 v 0.5 432.69336 l 6.70508,-2.23438 7.17383,-4.09961 1.875,-3.74804 2.88086,0.96094 0.21679,-0.2168 c 1.35136,-1.34214 5.66446,-4.24337 10.04688,-6.79688 2.19121,-1.27675 4.4124,-2.48189 6.3164,-3.39843 1.904,-0.91654 3.5248,-1.54094 4.35938,-1.66602 l 0.16211,-0.0234 4.86328,-4.86328 2,1 7.03516,-7.03515 2.97656,0.99218 4.16992,-3.57617 0.21875,0.21875 v -0.4043 l 1.39648,-1.19921 0.60352,0.60351 v -1.11914 l 0.57422,-0.49219 2.14844,1.07422 2.03125,-4.05859 2.88086,0.96094 0.21679,-0.2168 c 1.29445,-1.28489 3.85148,-3.1468 6.51953,-4.72461 2.66805,-1.57781 5.49435,-2.88017 7.20313,-3.13672 l 0.1582,-0.0234 0.11524,-0.11133 c 1.3882,-1.34114 5.16509,-3.96891 9.0332,-6.27734 1.93405,-1.15421 3.89867,-2.23753 5.61523,-3.06445 1.71657,-0.82692 3.20804,-1.39348 4.07813,-1.52344 l 0.0918,-0.0137 7.33398,-4.18945 v -2.85743 l 6.66992,-0.95312 5.48438,-3.28906 -0.98438,-1.96875 5.33008,-2.66407 2.10937,1.05469 0.25586,-0.27148 c 1.22108,-1.30115 2.0415,-2.17789 2.95704,-2.75977 0.91553,-0.58188 1.95444,-0.90824 3.72656,-1.08398 l 0.14844,-0.0156 8.61132,-6.9668 0.69141,0.69141 v -1.34766 l 1.57617,-9.80078 0.80469,-11.04101 V 427 399.98242 l -1.96289,-28.0332 -4.42578,-32.04688 -2.60742,-9.9375 -4.55469,-18.15625 -15.02149,-44.0625 -8.87695,-22.01367 -0.0566,-0.0644 c -2.81318,-3.17803 -7.11959,-11.61731 -7.88281,-15.75781 L 772.41602,229.5 h -1.60743 l 0.78907,-1.58008 -8.15039,-9.16992 -3.00586,-10.01758 -0.0918,-0.0898 c -2.82201,-2.75854 -4.67232,-6.1548 -6.77149,-9.4375 -1.99344,-3.11737 -4.2673,-6.10881 -7.80078,-8.27539 l 2.20118,-2.20117 -4.33399,-1.08204 0.91602,-2.74804 -12.80469,-15.78711 -16.98047,-20.17383 -14.41992,-13.70898 -11.41797,-12.25782 -9.80664,-9.54101 -2.87695,0.95898 -2.94532,-5.88867 z m 1,1 h 2.19141 l 3.05468,6.11133 3.12305,-1.04102 9.35352,9.09961 1.70507,1.83008 h -2.13476 l 2.70703,2.70703 v -2.0918 l 9.14453,9.81641 14.27149,13.56836 h -2.12305 l 2.70703,2.70703 v -2.04297 l 16.48437,19.58399 12.45508,15.35351 -1.08398,3.25196 3.66797,0.91601 -1.8418,1.8418 0.57227,0.32422 c 3.66053,2.06603 5.90714,5.0663 7.98046,8.30859 2.04512,3.19817 3.92337,6.61858 6.8125,9.48633 l 2.18165,7.26953 h -1.93555 l 2.70703,2.70703 v -0.13281 l 0.0527,0.17578 7.84961,8.83008 -0.90234,1.80273 V 227.5 h -0.5 -2.20703 l 2.59961,2.59961 -0.20117,0.40039 h 2.43945 c 0.97624,4.57158 4.96496,12.34738 7.92773,15.74023 l 8.8125,21.85352 14.99805,43.99805 4.54688,18.12304 2.59179,9.88282 4.41406,31.95312 1.95899,27.9668 V 427 v 8.98242 l -0.79883,10.95899 -1.375,8.55859 h -1.91406 l 1.30469,1.30469 -8.31446,6.72851 c -1.75068,0.19076 -2.96877,0.55092 -3.99804,1.20508 -0.97222,0.61791 -1.8138,1.53359 -2.8711,2.66016 L 797,466.44141 l -6.66992,3.33593 1.01562,2.03125 -4.51562,2.71094 -7.33008,1.04688 v 3.14257 l -6.74805,3.85743 0.17383,-0.0606 c -1.10491,0.16504 -2.60797,0.76575 -4.36328,1.61133 -1.75531,0.84558 -3.73992,1.93968 -5.69336,3.10547 -1.91107,1.14049 -3.77151,2.33724 -5.36914,3.4414 V 488.5 h -0.5 -2.20703 l 2.39258,2.39258 c -1.4626,1.02447 -2.68576,1.9623 -3.43164,2.66992 -2.00936,0.34561 -4.73524,1.63866 -7.39063,3.20898 -2.61133,1.54427 -4.99437,3.29347 -6.44141,4.67579 l -3.17578,-1.0586 -1.96875,3.94141 -1.85156,-0.92578 -0.42578,0.36523 V 503.5 h -0.5 -2.20703 l 1.39453,1.39453 -0.6875,0.58789 V 504.5 h -0.5 -2.20703 l 1.7793,1.7793 -3.6836,3.15625 -3.02344,-1.00782 -6.36523,6.36524 V 512.5 h -0.5 -2.20703 l 2.5,2.5 -0.39258,0.39258 -2,-1 -4.40039,4.40039 V 516.5 h -0.5 -2.20703 l 2.5,2.5 -0.58985,0.58984 c -1.09341,0.2014 -2.57629,0.78151 -4.42187,1.66993 -1.9385,0.93314 -4.17598,2.14659 -6.38477,3.43359 -1.56879,0.91409 -2.98178,1.82905 -4.39648,2.73633 V 525.5 h -0.5 -2.20703 l 1,1 h -2 l 1.99609,1.99609 c -1.7276,1.16004 -3.04738,2.1664 -3.87695,2.94727 l -3.16602,-1.05469 -2.125,4.25195 -6.82617,3.9004 -5.29492,1.76562 z m -504.44336,0.26367 0.73633,0.73633 h -1.43555 c 0.24502,-0.25619 0.46975,-0.48646 0.69922,-0.73633 z M 425.79297,125.5 428.5,128.20703 V 125.5 H 428 Z M 391.5,132.69336 V 133.5 h -0.5 -1.91992 z m 41.63672,3.15039 1.42383,1.42383 c -0.60383,-0.17318 -1.06453,-0.38495 -1.85157,-0.57031 z M 436.79297,136.5 439.5,139.20703 V 136.5 H 439 Z m 21,3 2.70703,2.70703 V 139.5 H 460 Z m -9,3 2.70703,2.70703 V 142.5 H 451 Z m -327,11 2.70703,2.70703 V 153.5 H 124 Z m 351,3 2.70703,2.70703 V 156.5 H 475 Z m 252,12 2.70703,2.70703 V 168.5 H 727 Z m 7,6 2.70703,2.70703 V 174.5 H 734 Z m -432,18 2.70703,2.70703 V 192.5 H 302 Z m -12,8 2.70703,2.70703 V 200.5 H 290 Z M 87.792969,202.5 90.5,205.20703 V 202.5 H 90 Z m 155.000001,19 2.70703,2.70703 V 221.5 H 245 Z m -23,16 2.70703,2.70703 V 237.5 H 222 Z m -17,8 2.70703,2.70703 V 245.5 H 205 Z M 169.5,293.39062 l -5.74609,1.14844 -0.10743,0.10742 -4.74609,4.7461 -1.92187,-0.96289 -5.28907,3.17383 -4.78906,4.78906 -2.00977,-1.00586 -0.25585,0.27148 c -1.22108,1.30115 -2.0415,2.17789 -2.95704,2.75977 -0.91553,0.58188 -1.95444,0.90824 -3.72656,1.08398 l -0.17773,0.0176 -7.04297,7.04297 -2.8125,0.9375 h -0.125 l 0.0312,0.0312 -9.06445,3.02148 -13.9336,10.94727 h -5.033201 l -4,4 h -2 l 1,1 -2.089844,2.08984 -1.742188,0.8711 -3.095703,-1.03321 -0.216797,0.2168 c -1.294445,1.28489 -3.851482,3.1468 -6.519531,4.72461 -2.668049,1.57781 -5.494343,2.88017 -7.203125,3.13672 l -0.125,0.0176 -11.853515,8.89062 -1.96875,-0.98437 -5.632813,3.3789 1.009766,2.01953 -2.390625,1.59571 L 50.5,360.19141 v 2.11523 L 47.939453,361.45312 42.5,364.7168 v 1.47461 l -1.521484,-0.76172 -5.308594,3.18554 -4.703125,5.64454 -1.91211,-1.91211 -7.544921,5.38867 L 20.5,404.98828 v 0.006 c -0.240134,21.05171 0.26058,42.14498 2.884766,63.06836 2.433092,19.34458 6.337274,38.76949 11.714843,57.50586 v 0.002 l 8.429688,28.59961 10.886719,25.29883 L 58.65625,590.5 h 1.535156 l -1,2 h 2 l -1,2 h 2.5 l 1.75,3.5 -1.048828,2.09961 6.173828,6.17383 5.007813,14.02343 5.84375,4.86915 -0.964844,2.89453 3.212891,5.35547 2.628906,0.87695 -0.904297,1.80859 0.259766,0.25586 c 2.275332,2.23148 3.870138,4.92911 5.740234,7.37695 1.751171,2.29219 3.8106,4.33398 6.861328,5.48438 l -2.0625,3.09375 4.166016,1.04102 -1.048828,3.14648 h 4.052739 l -0.96485,3.86328 4.22852,1.05859 2.9414,7.84375 12.58008,13.90625 18.67969,19.46094 9.70703,8.47461 5.35352,5.23438 11.91796,11.1582 h 3.83399 l -0.15039,-0.61719 C 169.57848,723.14574 169.30475,714.0658 169.29102,704.7793 169.27728,695.49279 169.5,685.94504 169.5,681 v -92 z m -1,1.21875 V 589 681 c 0,4.91495 -0.22275,14.47777 -0.20898,23.78125 0.0133,8.9913 0.25739,17.49562 1.1582,21.71875 h -2.25195 l -11.6211,-10.88086 -5.36719,-5.24609 -9.69336,-8.46485 -18.64062,-19.41992 -12.43945,-13.75391 -1.55469,-4.14648 2.61914,2.61914 V 664.5 h -0.5 -2.15234 l -1.47071,-3.92188 -3.77148,-0.9414 1.03516,-4.13672 h -3.947271 l 0.951171,-2.85352 -3.835936,-0.95898 1.974609,-2.96094 -0.630859,-0.20312 c -3.158773,-1.00966 -5.146897,-3.01434 -6.966797,-5.39649 -1.749459,-2.28994 -3.348008,-4.90873 -5.59375,-7.19531 l 0.878906,-1.75391 1.029297,1.0293 V 632.5 H 87 84.792969 l 0.855468,0.85547 -2.314453,-0.77149 -2.787109,-4.64453 1.035156,-3.10547 -6.15625,-5.13086 -4.992187,-13.97656 -5.826172,-5.82617 L 65.558594,598 64.824219,596.53125 67.5,599.20703 V 596.5 H 67 64.808594 l -1.5,-3 h -1.5 l 1,-2 h -2 l 1,-2 H 59.34375 l -4,-10.4082 -10.873047,-25.26172 -8.410156,-28.53711 v -0.004 C 30.698662,506.60659 26.8037,487.23163 24.376953,467.9375 21.76163,447.08479 21.260454,426.04193 21.5,405.01758 v -0.002 c 3.7e-5,-0.003 -3.7e-5,-0.007 0,-0.01 l 0.990234,-26.74219 0.621094,-0.44531 L 25.5,380.20703 V 377.5 H 25 23.558594 l 5.386718,-3.84766 2.087891,2.08789 5.296875,-6.35546 4.691406,-2.81446 L 43.5,367.80859 V 365.2832 L 44.796875,364.50391 47.5,367.20703 V 364.5 H 47 44.804687 l 3.25586,-1.95313 3.439453,1.14649 v -1.88477 l 1.535156,0.76758 3.609375,-2.4043 -0.990234,-1.98046 4.367187,-2.6211 2.03125,1.01563 12.201172,-9.15039 c 2.008765,-0.3474 4.73038,-1.63846 7.382813,-3.20703 0.677636,-0.40074 1.027822,-0.79206 1.671875,-1.2129 L 85.5,345.20703 V 342.5 H 85 84.017578 c 1.506815,-1.02703 3.148392,-2.0759 4.060547,-2.94727 l 2.960937,0.98633 2.257813,-1.1289 2.203125,-2.20313 1,1 v -2 L 100.20703,332.5 h 4.9668 l 14.0664,-11.05273 9.375,-3.125 1.88477,1.88476 v -2.51367 l 0.76953,-0.25586 6.97461,-6.97461 c 1.73375,-0.19175 2.94752,-0.55088 3.9707,-1.20117 0.0597,-0.038 0.11723,-0.12443 0.17578,-0.16406 L 144.5,311.20703 V 308.5 h -0.5 -0.96289 c 0.64969,-0.53483 1.29431,-1.09449 2.04883,-1.89844 l 2.01367,1.00586 5.21094,-5.21094 4.71093,-2.82617 2.07813,1.03711 5.14648,-5.14648 z M 152.79297,303.5 155.5,306.20703 V 303.5 H 155 Z m 658.51562,174.82617 -0.42382,0.23828 -7.17579,4.02539 -8.82421,7.84375 -3.01954,-1.00586 -0.21679,0.2168 c -1.29445,1.28489 -3.85148,3.1468 -6.51953,4.72461 -2.66805,1.57781 -5.49435,2.88017 -7.20313,3.13672 l -0.11914,0.0176 L 761.03906,509.5 h -0.24609 l 0.10351,0.10352 -3.98046,2.84179 -3.01954,-1.00586 -7.4082,6.06055 h -0.69531 l 0.3125,0.3125 -3.20899,2.62695 -2.95117,-0.98437 -7.23828,4.13672 -8.82226,7.84179 -3.03125,-1.00976 -0.21875,0.23437 c -1.22108,1.30115 -2.0415,2.17789 -2.95704,2.75977 -0.91553,0.58188 -1.95444,0.90824 -3.72656,1.08398 l -0.125,0.0137 -23.86133,15.90821 -2.06445,-1.03125 -5,5 -2.00977,-1.00586 -0.25585,0.27148 c -1.22108,1.30115 -2.0415,2.17789 -2.95704,2.75977 -0.91553,0.58188 -1.95444,0.90824 -3.72656,1.08398 l -0.17773,0.0176 -6.90821,6.9082 -2.90429,-0.96679 -2.25586,1.12695 -0.0566,0.0566 c -1.66997,1.65541 -4.73285,3.97884 -7.9375,5.94922 -3.20465,1.97038 -6.59117,3.5903 -8.78321,3.91211 l -0.0996,0.0137 -5.48242,3.28906 0.96485,1.92774 -14.61328,5.8457 -4.73047,5.67774 -1.9668,-1.9668 -5.09961,5.09961 -1.92187,-0.96289 -5.3125,3.1875 -3.8379,4.79883 -2.96289,-0.98829 -4.96484,4.96485 -1.92187,-0.96289 -5.23047,3.13867 -6.9961,3.99805 -7,4 -7.0039,4.00195 -5.01758,3.00976 -18.76953,12.84375 -2.02344,-1.01171 -10,8 -2.04688,-1.02344 -0.25585,0.27148 c -1.22108,1.30115 -2.0415,2.17789 -2.95704,2.75977 -0.91553,0.58188 -1.95444,0.90824 -3.72656,1.08398 l -0.17773,0.0176 -7.00391,7.00391 c -3.08011,-0.0341 -6.69303,1.62206 -10.24414,3.65039 -3.64418,2.08149 -7.20444,4.55828 -9.82031,6.03125 -3.16061,1.78022 -6.45095,3.15575 -8.81446,6.18164 l -2.11328,-1.05664 -2.03125,4.05859 -2.78515,-0.92773 -2.46094,1.23047 v 2.89453 c -2.64062,0.04 -5.91557,1.16957 -9.01953,2.85547 -3.13642,1.70352 -5.94631,3.87829 -7.57227,5.95507 l -2.00781,-1.0039 -7.13867,7.13867 c -5.32757,-0.11327 -11.27994,3.23105 -13.22852,8.28906 l -0.18945,0.49024 0.5,0.16406 c 4.90994,1.61062 15.37692,7.21467 18.79102,10.86719 l 0.25585,0.27148 2.10938,-1.05469 5.67773,2.83985 4.1836,5.23047 2.02539,-1.01368 c 1.01065,1.26358 1.94281,2.03065 2.91992,2.57032 1.07191,0.59203 2.18126,1.00214 3.65234,1.85742 2.4993,1.45057 5.30927,3.67961 8.27149,5.49414 2.23738,1.37053 4.57669,2.51045 6.9707,2.87109 l 0.79883,0.79883 v -0.76758 c 0.42446,0.0318 0.84804,0.073 1.27539,0.0488 1.24128,1.92055 4.05752,4.47772 7.21484,6.48047 1.63617,1.03785 3.33712,1.90825 4.92579,2.4043 1.42207,0.44403 2.73991,0.52572 3.87304,0.15429 l 4.88477,5.86133 7.12695,4.07422 7.07813,2.12305 1.62109,1.62109 v -1.13476 l 1.28516,0.38476 2.57031,1.71484 -1.00977,2.01954 5.63282,3.3789 1.88867,-0.94531 c 0.86506,1.1542 1.78022,2.2026 2.91015,2.81836 1.13759,0.61993 2.51524,0.68033 4.02539,0.10351 l 4.9375,5.92188 0.19141,0.0273 c 3.29229,0.45329 6.12829,2.46788 9.10156,4.39649 2.90695,1.88558 5.97968,3.6599 9.74024,3.58789 L 573.79297,774.5 576.5,777.20703 579.79297,780.5 H 587.5 v -1.69141 l 2,1 v -2.46679 l 17.7793,-6.91407 5.85547,-5.85546 3,1 0.21875,-0.21875 c 1.2003,-1.19551 3.31862,-2.79105 5.54492,-4.13868 2.22629,-1.34762 4.5889,-2.45039 6.18554,-2.72265 l 0.16797,-0.0274 0.11524,-0.125 c 2.53203,-2.73141 4.05917,-4.23676 7.71484,-4.84765 l 0.22852,-0.0371 2.91211,-4.85352 3.09375,1.03125 0.97656,-2.92773 1.79492,0.89844 16.03711,-15.03516 2.98633,0.99609 16.76562,-14.47461 23.46875,-22.72851 8.70117,-8.30078 17.23438,-21.07227 0.21875,0.21875 v -0.48633 l 1.73633,-2.12304 2.11719,-2.53711 0.14648,0.14648 v -0.32226 l 4.65039,-5.57227 12.29297,-16.07031 3.98828,-10.9668 0.66797,-0.66797 2.08398,1.04297 5.38868,-8.62305 -0.98047,-1.95898 c 0.11176,-0.0908 0.2488,-0.30211 0.36328,-0.40625 l 0.54492,0.54492 v -1.1582 c 0.69933,-0.72748 1.37356,-1.3253 2.14258,-2.40625 1.20223,-1.68989 2.45196,-3.72587 3.59375,-5.81055 1.14179,-2.08468 2.17506,-4.21718 2.93945,-6.10742 0.68688,-1.69857 1.0592,-3.08084 1.18945,-4.22461 h 2.44336 l -1.18945,-2.38086 c 1.58887,-1.19897 2.66109,-2.38749 3.23828,-3.7832 0.58195,-1.4072 0.69387,-3.01585 0.63477,-4.97266 l 2.99804,-1 0.01,-0.34961 c 0.0972,-3.80068 1.33987,-5.83182 3.87305,-8.68164 l 0.12109,-0.13476 0.006,-0.17969 c 0.0329,-0.92887 0.48845,-2.69158 1.19922,-4.80078 0.71077,-2.10921 1.668,-4.59277 2.68359,-7.10743 2.03119,-5.0293 4.28812,-10.16912 5.27539,-12.77148 l 0.006,-0.0195 13.45313,-46.24024 3.5039,-17.98242 c 0.46632,-2.06058 1.05709,-3.57711 1.24219,-5.14648 0.1856,-1.57358 -0.0892,-3.17941 -1.30469,-5.20703 z m -0.41406,1.37891 c 0.88258,1.62755 1.12612,2.85896 0.97656,4.12695 -0.1644,1.39392 -0.7454,2.91766 -1.22851,5.05859 l -0.002,0.006 -3.49609,17.94532 -13.43164,46.16406 c -0.96573,2.54261 -3.2208,7.68962 -5.25586,12.72851 -1.0194,2.5241 -1.98335,5.02039 -2.70508,7.16211 -0.69235,2.05457 -1.12641,3.69677 -1.20117,4.87891 -2.44096,2.76516 -3.82603,5.11389 -4.00781,8.84961 l -3.0586,1.01953 0.0156,0.37695 c 0.0888,2.09629 -0.0294,3.63304 -0.56641,4.93164 -0.53703,1.29861 -1.4993,2.40757 -3.22461,3.64063 l -0.34765,0.24805 0.83008,1.6582 h -1.66797 l -0.0234,0.47656 c -0.0439,0.92949 -0.50697,2.53079 -1.25195,4.37305 -0.74499,1.84226 -1.76297,3.94664 -2.88868,6.00195 -0.59284,1.08241 -1.23135,1.9977 -1.85937,3.00781 V 611.5 h -0.5 -2.20703 l 2,2 c -0.32633,0.49799 -0.64427,1.11189 -0.96485,1.5625 -0.49886,0.70122 -0.86536,0.95789 -1.32812,1.50391 V 616.5 h -0.5 -2.20703 l 1.46875,1.46875 c -0.16349,0.14746 -0.4093,0.52168 -0.55469,0.62695 l -0.34375,0.24805 1.06445,2.12891 -4.61132,7.37695 -1.91602,-0.95703 -1.33203,1.33203 -4.01172,11.0332 -12.1875,15.92969 -3.86914,4.63672 V 659.5 h -0.5 -2.20703 l 1.84961,1.84961 -2.17774,2.61133 -0.96484,1.17968 V 664.5 h -0.5 -2.20703 l 1.77734,1.77734 -17.25781,21.10157 -5.8125,5.54492 V 691.5 h -0.5 -2.20703 l 2.05078,2.05078 -2.18945,2.08789 -23.45118,22.71289 -4.70312,4.06055 V 720.5 h -0.5 -2.20703 l 2.2793,2.2793 -9.57227,8.26562 V 728.5 h -0.5 -2.20703 l 2.61914,2.61914 -1.52344,1.31641 L 660.875,731.43164 648.5,743.0332 V 740.5 h -0.5 -2.20703 l 2.61719,2.61719 -3.49805,3.27929 -2.20508,-1.10156 -0.20703,0.6211 V 745.5 h -0.5 -2.20703 l 2.13476,2.13477 -0.24414,0.73242 -2.90625,-0.96875 -3.10547,5.17578 c -3.64635,0.67557 -5.50504,2.37496 -7.93945,4.99414 -1.83787,0.35568 -4.13527,1.44945 -6.35156,2.79101 -2.17642,1.31744 -4.15153,2.82522 -5.46484,4.08594 l -3.05079,-1.01758 -6.14453,6.14454 -4.2207,1.64062 V 769.5 h -0.5 -2.20703 l 1.99219,1.99219 L 588.5,776.6582 v 1.53321 l -2,-1 V 779.5 h -6.29297 L 576.5,775.79297 V 774.5 h -0.5 -0.79297 l -2.00781,-2.00781 -0.2207,0.008 c -3.54073,0.14793 -6.45563,-1.53588 -9.40235,-3.44727 -2.88565,-1.87177 -5.78626,-3.9418 -9.29297,-4.49414 l -5.14453,-6.17382 -0.34961,0.1621 c -1.45742,0.67766 -2.525,0.567 -3.5332,0.0176 -1.0082,-0.54942 -1.94226,-1.60406 -2.85156,-2.85742 l -0.24805,-0.34375 -2.13477,1.06641 -4.36718,-2.6211 0.99023,-1.98047 -3.42969,-2.28515 L 531.5,749.02734 V 748.5 h -0.5 -1.25977 l -6.54101,-1.96289 -6.87305,-3.92578 -5.1875,-6.22656 -0.34765,0.1621 c -0.84778,0.39192 -2.11235,0.32817 -3.57618,-0.1289 -1.46383,-0.45707 -3.10562,-1.28832 -4.68945,-2.29297 -3.16767,-2.0093 -6.12573,-4.75968 -7.0957,-6.38086 l -0.16016,-0.26953 -0.3125,0.0273 c -0.48212,0.0413 -0.97021,-0.0175 -1.45703,-0.0586 V 726.5 h -0.5 -2.20703 l 0.53125,0.53125 c -1.69184,-0.49818 -3.39276,-1.31886 -5.07227,-2.34766 -2.89027,-1.77046 -5.69032,-3.99643 -8.29101,-5.50586 -1.53891,-0.89471 -2.68879,-1.32421 -3.67188,-1.86718 -0.98308,-0.54297 -1.82781,-1.19005 -2.88867,-2.60938 l -0.25,-0.33594 -2.01172,1.00586 L 467.5,713.32227 V 711.5 h -0.5 -0.95898 l -0.71875,-0.89844 -6.32227,-3.16015 -1.93555,0.96875 c -3.80877,-3.86977 -13.17668,-8.82146 -18.34765,-10.625 1.96219,-4.39406 7.48617,-7.48877 12.26172,-7.28516 l 0.21875,0.01 6.90234,-6.90235 2.05664,1.0293 0.24805,-0.34375 c 1.27914,-1.76419 3.88634,-3.77758 6.74023,-5.44141 L 469.5,681.20703 V 678.5 h -0.5 -1.31641 c 0.0984,-0.0548 0.17651,-0.12598 0.27539,-0.17969 3.19752,-1.73671 6.66931,-2.91785 9.01954,-2.82031 l 0.52148,0.0215 v -3.21289 l 1.53906,-0.76953 3.21485,1.07227 1.96875,-3.94141 1.93359,0.9668 0.24805,-0.34375 c 2.18309,-3.01611 5.4347,-4.32634 8.79101,-6.2168 2.69412,-1.51703 6.23341,-3.98219 9.82422,-6.0332 2.57148,-1.46879 5.05007,-2.45367 7.31836,-2.99805 l 2.16211,2.16211 v -2.60742 c 0.14518,-0.003 0.34011,-0.10537 0.48047,-0.0996 l 0.21875,0.008 7.04492,-7.04492 c 1.15408,-0.12764 2.04304,-0.37183 2.82422,-0.6875 L 527.5,648.20703 V 645.5 h -0.5 -1.31641 c 0.16766,-0.0877 0.37271,-0.13751 0.53125,-0.23828 0.97222,-0.61791 1.8138,-1.53359 2.8711,-2.66016 l 1.97656,0.98828 10,-8 1.97656,0.98828 19.23047,-13.15625 4.98242,-2.99023 6.9961,-3.99805 7,-4 7.0039,-4.00195 4.76953,-2.86133 1.67969,0.83789 1.79883,1.79883 V 605.5 h -0.29297 l 3.92774,-3.92773 3.0371,1.01171 4.16211,-5.20117 4.6875,-2.8125 2.07813,1.03711 4.90039,-4.90039 2.0332,2.0332 5.26953,-6.32226 15.38672,-6.15625 -1.03515,-2.07031 4.58984,-2.75391 c 2.49211,-0.41171 5.7951,-2.02766 8.99023,-3.99219 3.22331,-1.98184 6.25775,-4.27593 8.03711,-6.02344 l 1.76758,-0.88281 3.09571,1.03321 7.10937,-7.10938 c 1.15408,-0.12764 2.04304,-0.37183 2.82422,-0.6875 L 679.5,560.20703 V 557.5 h -0.5 -1.31641 c 0.16766,-0.0877 0.37271,-0.13751 0.53125,-0.23828 0.97222,-0.61791 1.8138,-1.53359 2.8711,-2.66016 l 2.01367,1.00586 5,-5 1.93555,0.96875 24.1582,-16.10547 c 1.76534,-0.18989 2.98697,-0.55149 4.02148,-1.20898 0.98423,-0.62554 1.82949,-1.54564 2.90625,-2.69336 l 2.99414,0.99805 9.17774,-8.15821 6.76172,-3.86328 3.04883,1.01563 3.71289,-3.03711 1.68359,1.68359 V 517.5 h -0.43359 l 6.03711,-4.93945 2.98046,0.99414 4.5293,-3.23438 1.88672,1.88672 V 509.5 h -0.5 -0.24023 l 10.51953,-7.51367 2.2207,2.2207 V 501.5 h -0.5 -1.04102 l 4.28711,-3.0625 c 2.00936,-0.34561 4.73524,-1.63866 7.39063,-3.20898 2.61133,-1.54427 4.99437,-3.29347 6.4414,-4.67579 l 3.03711,1.01368 9.17579,-8.15625 z M 761.79297,512.5 764.5,515.20703 V 512.5 H 764 Z M 692.5,527.20703 l 0.52148,0.52149 c -0.16415,0.10654 -0.3616,0.219 -0.52148,0.32421 z M 672.79297,533.5 675.5,536.20703 V 533.5 H 675 Z m 3,0 2.70703,2.70703 V 533.5 H 678 Z m 22,21 2.70703,2.70703 V 554.5 H 700 Z m -34,11 2.70703,2.70703 V 565.5 H 666 Z M 186.5,572.21289 V 573 732.03516 l 1.34375,9.76953 21.06641,15.75195 2.10351,-0.70117 -0.66406,1.32812 8.47656,5.29688 0.10742,0.0156 c 3.81549,0.51456 5.98794,2.11267 8.71094,4.85547 l 0.0625,0.0645 15.26172,7.12109 2.81836,-0.93945 c 0.68294,1.84271 2.15077,3.26377 3.96289,4.20312 1.83179,0.94955 3.91118,1.4448 5.75,1.61914 v 1.93164 l 16.22266,5.85352 14.16015,6.29101 0.0937,0.004 c 4.06129,0.18372 7.93555,2.08261 12.01367,3.26953 l 0.002,0.002 24.16211,6.8418 0.0117,0.004 c 24.30146,5.69503 48.85122,9.7501 73.80664,11.16211 h 0.0137 7.99804 l 12.00977,0.7207 18.01563,-0.65039 h 8.00585 0.0137 c 22.34546,-1.32151 44.94292,-4.37623 66.80273,-9.37305 l 0.0117,-0.002 9.28711,-2.61133 17.66797,-4.59375 1.33398,-0.42969 0.36719,0.36719 v -0.48437 l 26.2832,-8.44922 -2.47461,-3.71094 -7.58398,-1.89648 0.93164,-1.86133 -12.59961,-7.34961 -2.07031,0.68945 1,-2 -3.77539,1.25781 -1.70703,-2.66797 -12.5586,-6.96093 -1.77734,0.63476 c -0.68078,-1.10708 -1.14882,-1.92183 -1.82227,-2.32617 -0.65979,-0.39614 -1.59891,-0.42496 -2.8457,-0.5 v -2.87305 l -7.3125,-4.17773 -7.46289,-1.86523 1.08398,-2.16602 h -5.56054 c -2.44471,-4.24196 -7.07139,-7.0786 -12.01368,-6.97266 l -7.13476,-7.13476 -2.04688,1.02148 -11.96289,-8.9707 -3.05078,1.01758 -1.53906,-0.76953 v -3 l -2.46094,-1.23047 -2.78515,0.92773 -2.03125,-4.05859 -2.1875,1.09375 -24,-16 -1.53516,0.76758 v -1.88477 l -3.32813,1.10938 c -2.51807,-4.49425 -7.83513,-6.0309 -11.875,-8.44532 -0.81889,-0.48945 -1.65391,-1.20687 -2.57421,-1.65039 -0.46016,-0.22176 -0.9564,-0.37766 -1.48438,-0.35547 -0.37202,0.0156 -0.73591,0.25091 -1.09961,0.46094 -0.92518,-1.19394 -1.55145,-2.05339 -2.36523,-2.48437 -0.83665,-0.4431 -1.85173,-0.47373 -3.46289,-0.4375 L 396.30859,691.5 h -5.13476 l -13.9336,-10.94727 -12,-4 -14.17968,-11.14257 -2.01563,1.00976 -16.85547,-11.89844 -0.12109,-0.0176 c -0.86334,-0.11863 -2.3583,-0.66765 -4.08203,-1.48047 -1.72373,-0.81282 -3.69932,-1.88375 -5.64063,-3.03125 -3.88261,-2.29501 -7.66651,-4.9459 -8.98242,-6.33594 L 313.21484,643.5 h -4.96289 c -1.7664,-3.20462 -5.57644,-5.42858 -9.625,-7.58789 -4.17141,-2.22484 -8.58609,-4.39508 -11.26172,-7.25391 l -0.0508,-0.0547 -7.25976,-4.14844 -2.80078,0.93359 -1.875,-3.74805 -7.19727,-4.11132 -8.88477,-1.97657 c -0.2504,-0.43151 -0.53279,-0.77017 -0.79687,-1.1582 V 613.5 h -0.5 -0.11523 c -0.80471,-1.02614 -1.666,-1.9263 -2.67774,-2.5625 -1.61034,-1.01261 -3.55789,-1.45586 -5.9043,-1.41016 -0.78553,-1.51949 -1.39244,-2.50227 -2.33789,-2.9707 -0.90679,-0.44927 -2.02568,-0.35518 -3.58789,-0.10547 l -1.02343,-4.0957 -3.31446,1.10547 -1.74219,-0.8711 -6.99023,-6.99023 -7.05859,-4.0332 -7.19336,-4.11133 -2.80078,0.93359 -2.03125,-4.05859 -2.12305,1.0625 -4.80859,-4.8086 z m 1,1.57617 16.20898,7.62696 5.19141,5.1914 1.87695,-0.9375 1.91407,3.83008 h -0.89844 L 214.5,592.20703 V 589.5 h -0.5 -0.91992 l 2.86523,-0.95508 6.80664,3.88867 6.94141,3.9668 7.00976,7.00977 2.25782,1.1289 2.68554,-0.89453 0.98047,3.92578 0.45703,-0.0781 c 1.82889,-0.31225 2.79313,-0.36028 3.4375,-0.041 0.64438,0.31926 1.18647,1.11164 2.03321,2.77539 l 0.14453,0.28711 0.32226,-0.0137 c 2.36182,-0.097 4.15225,0.34064 5.6543,1.28516 0.70846,0.44549 1.34842,1.02948 1.95703,1.71484 h -0.83984 l 2.70703,2.70703 v -0.0547 c 0.0206,0.0359 0.0439,0.0575 0.0645,0.0937 l 0.10938,0.19336 9.14453,2.03125 6.80273,3.88867 2.125,4.25196 3.19922,-1.06641 6.76953,3.86719 c 2.8771,3.03131 7.32691,5.18833 11.44141,7.38281 4.14858,2.21266 7.91446,4.47499 9.39648,7.42969 l 0.13868,0.27539 h 5.13867 c 1.59626,1.6164 5.18356,4.09416 9.00586,6.35352 1.96244,1.15999 3.9592,2.24266 5.72265,3.07421 1.68466,0.7944 3.09095,1.31679 4.17774,1.49805 l 17.21875,12.1543 1.98437,-0.99024 2.43164,1.91016 H 353 350.79297 l 2.70703,2.70703 v -2.60547 l 11.25977,8.84571 12,4 14.0664,11.05273 h 4.86524 l 2.0039,4.00781 0.31836,-0.008 c 1.82995,-0.0497 2.67458,-0.003 3.29297,0.32422 0.61839,0.3275 1.17681,1.03983 2.29883,2.48242 l 0.32031,0.41211 0.39649,-0.33789 c 0.35628,-0.30179 0.65446,-0.40321 0.95898,-0.41602 0.30452,-0.0128 0.63601,0.0776 1.00586,0.25586 0.73969,0.35648 1.57499,1.05883 2.49609,1.60938 0.41028,0.2452 0.84413,0.44149 1.26758,0.66992 H 410 407.79297 l 2.70703,2.70703 v -2.46875 c 3.93094,2.06557 8.16243,3.70376 10.05273,7.48438 l 0.19336,0.38867 0.11914,-0.0391 2.63477,2.63476 v -1.39844 l 2.46484,-1.23242 24,16 1.8125,-0.90625 1.96875,3.94141 3.21485,-1.07227 1.53906,0.76953 v 3 l 2.46094,1.23047 2.94922,-0.98242 3.92382,2.94336 h -2.04101 L 468.5,737.20703 V 735 l 7.44727,5.58594 1.95312,-0.97852 6.90234,6.90235 0.21875,-0.01 c 4.73137,-0.20113 9.27836,2.594 11.53907,6.74023 l 0.14257,0.25977 h 4.48829 l -0.91797,1.83398 4.66406,1.16602 h -1.14453 l 2.70703,2.70703 v -2.31641 l 2.3125,0.57813 6.6875,3.82227 v 3.17968 l 0.4707,0.0293 c 1.66179,0.10011 2.39773,0.1611 2.86133,0.43945 0.4636,0.27835 0.86618,0.90063 1.74219,2.32227 l 0.21289,0.3457 2.06836,-0.74023 11.9414,6.61914 1.99219,3.11133 2.22461,-0.74219 -1,2 3.92969,-1.31055 11.40039,6.65039 -1.07031,2.13867 8.41797,2.10352 1.52539,2.28906 -24.7168,7.94727 V 796.5 h -0.5 -2.20703 l 1.54687,1.54687 -0.82031,0.26368 -17.65039,4.58593 -9.27734,2.60938 -0.008,0.002 c -21.78401,4.97786 -44.31028,8.02301 -66.58789,9.3418 h -8.00586 L 416.00586,815.5 404.01562,814.7793 H 396.00391 396 c -24.87383,-1.40934 -49.35321,-5.45431 -73.60156,-11.13672 h -0.004 l -24.125,-6.83203 -0.004,-0.002 c -1.57795,-0.45947 -3.16673,-1.05071 -4.76562,-1.60351 V 792.5 h -0.5 -2.20703 l 2.70508,2.70508 c -2.37608,-0.82146 -4.79179,-1.55391 -7.35547,-1.68946 L 272.0957,787.27539 256.5,781.64844 v -2.11719 l -0.46875,-0.0293 c -1.80074,-0.11555 -3.9923,-0.6403 -5.82031,-1.58789 -1.82801,-0.94759 -3.26542,-2.29589 -3.72657,-4.04101 l -0.13671,-0.51563 -3.31641,1.10547 -14.77344,-6.89453 c -2.70427,-2.70801 -5.14675,-4.47131 -9.05859,-5.0332 l -7.54883,-4.71875 1.33594,-2.67188 -3.89649,1.29883 -20.3125,-15.18945 L 187.5,731.96484 Z M 199.79297,581.5 202.5,584.20703 V 581.5 H 202 Z m 429,5 2.70703,2.70703 V 586.5 H 631 Z m 136,18 2.70703,2.70703 V 604.5 H 767 Z M 76.792969,619.5 79.5,622.20703 V 619.5 H 79 Z m 206.000001,10 2.70703,2.70703 V 629.5 H 285 Z m 263,13 2.70703,2.70703 V 642.5 H 548 Z M 94.792969,644.5 97.5,647.20703 V 644.5 H 97 Z m 221.000001,5 2.70703,2.70703 V 649.5 H 318 Z m 7,8 2.70703,2.70703 V 657.5 H 325 Z m 7,0 2.70703,2.70703 V 657.5 H 332 Z m 397,2 2.70703,2.70703 V 659.5 H 729 Z m -615,8 2.70703,2.70703 V 667.5 H 114 Z m 5,8 2.70703,2.70703 V 675.5 H 119 Z m 347,6 2.70703,2.70703 V 681.5 H 466 Z m -336,4 2.70703,2.70703 V 685.5 H 130 Z m 330,16 2.70703,2.70703 V 701.5 H 460 Z m -309,7 2.70703,2.70703 V 708.5 H 151 Z M 423.5,708.69336 V 709.5 H 423 421.08008 Z M 480.79297,717.5 483.5,720.20703 V 717.5 H 483 Z m 183,7 2.70703,2.70703 V 724.5 H 666 Z m -167,4 2.70703,2.70703 V 728.5 H 499 Z m 13,6 2.70703,2.70703 V 734.5 H 512 Z m -316,5 2.70703,2.70703 V 739.5 H 196 Z m 317,22 2.70703,2.70703 V 761.5 H 513 Z m -269,2 2.70703,2.70703 V 763.5 H 244 Z m 290,10 2.70703,2.70703 V 773.5 H 534 Z"
     id="Selection" />
</svg>
